<?xml version="1.0" encoding="utf-8"?>
<svg width="65" height="65" viewBox="0 0 65 65" fill="none" xmlns="http://www.w3.org/2000/svg">
<rect width="65" height="65" rx="6" fill="#D9F8EE"/>
<path d="M21.0242 42.1241L22.4615 36.6435C24.1665 30.1423 27.5106 24.1872 32.1742 19.3474C36.8378 14.5076 42.6649 10.9449 49.0983 9C50.3196 16.049 49.8287 23.2884 47.6671 30.108C45.5055 36.9277 41.7365 43.1279 36.6775 48.1863L34.6195 50.2388L33.0871 50.0263C30.6176 49.6819 28.255 48.7947 26.1692 47.4284C24.0834 46.062 22.3263 44.2505 21.0242 42.1241Z" fill="#22E297"/>
<path d="M25.8449 26.5881L24.2342 27.4773C21.3576 29.058 18.9172 31.3266 17.1314 34.0806C15.3455 36.8345 14.2697 39.988 14 43.2592L21.0241 42.1072" stroke="black" stroke-width="2" stroke-linecap="round" stroke-linejoin="round"/>
<path d="M44.9095 37.3594L45.1276 39.1881C45.5094 42.448 45.0779 45.7517 43.8717 48.8041C42.6656 51.8566 40.7223 54.5629 38.2153 56.6813L35.0779 50.3003" stroke="black" stroke-width="2" stroke-linecap="round" stroke-linejoin="round"/>
<path d="M40.1672 28.2102C42.2521 28.2102 43.9422 26.5201 43.9422 24.4353C43.9422 22.3505 42.2521 20.6604 40.1672 20.6604C38.0824 20.6604 36.3923 22.3505 36.3923 24.4353C36.3923 26.5201 38.0824 28.2102 40.1672 28.2102Z" fill="white"/>
</svg>
