<svg width="41" height="28" viewBox="0 0 41 28" fill="none" xmlns="http://www.w3.org/2000/svg">
<path d="M13.6821 16.2637C14.2833 19.3616 15.9258 22.1514 18.3289 24.1563C20.732 26.1612 23.7465 27.2568 26.8573 27.2559C30.4176 27.2559 33.8322 25.8203 36.3498 23.265C38.8673 20.7097 40.2816 17.2439 40.2816 13.6301C40.2822 11.8404 39.9354 10.0681 39.261 8.41444C38.5866 6.76079 37.5979 5.25816 36.3513 3.99243C35.1047 2.7267 33.6245 1.72264 31.9955 1.03761C30.3665 0.352576 28.6205 -9.16341e-08 26.8573 0C23.7362 0.00045618 20.7128 1.10397 18.3062 3.12099C15.8996 5.13802 14.2601 7.94269 13.6692 11.0532" fill="#22E297"/>
<path d="M13.4287 27.2603C20.8451 27.2603 26.8573 21.1578 26.8573 13.6301C26.8573 6.10242 20.8451 0 13.4287 0C6.01221 0 0 6.10242 0 13.6301C0 21.1578 6.01221 27.2603 13.4287 27.2603Z" fill="#96ECD1"/>
<path d="M24.0693 13.6301H36.4112" stroke="black" stroke-width="1.5" stroke-linecap="round" stroke-linejoin="round"/>
<path d="M31.05 8.18408L36.4155 13.63L31.05 19.0716" stroke="black" stroke-width="1.5" stroke-linecap="round" stroke-linejoin="round"/>
<path d="M18.5708 13.6301H21.4919" stroke="black" stroke-width="1.5" stroke-linecap="round" stroke-linejoin="round"/>
<path d="M12.7456 13.6301H15.671" stroke="black" stroke-width="1.5" stroke-linecap="round" stroke-linejoin="round"/>
<path d="M7.32007 13.6301H10.2412" stroke="black" stroke-width="1.5" stroke-linecap="round" stroke-linejoin="round"/>
</svg>
