<svg width="90" height="69" viewBox="0 0 90 69" fill="none" xmlns="http://www.w3.org/2000/svg">
<path d="M9.60938 47.8781V66.6281H78.4657V25.6853C78.4657 22.3651 74.6543 20.4903 72.0243 22.5167L57.1695 33.9622C55.9949 34.8673 54.416 35.0482 53.067 34.4324L39.7571 28.3562C38.5135 27.7884 37.0661 27.8951 35.9192 28.6391L11.4326 44.5223C10.2956 45.2598 9.60938 46.5229 9.60938 47.8781Z" fill="#22E297"/>
<path d="M1.92431 39.5073C1.23269 39.9633 1.04169 40.8937 1.49771 41.5853C1.95372 42.2769 2.88407 42.4679 3.57569 42.0119L1.92431 39.5073ZM89.5 0.5L72.2835 2.39525L82.5331 16.3576L89.5 0.5ZM56.7603 24.5339L57.6479 25.7431L56.7603 24.5339ZM35.5197 19.1532L36.3454 20.4055L35.5197 19.1532ZM39.3827 18.8539L38.7598 20.2185L39.3827 18.8539ZM3.57569 42.0119L36.3454 20.4055L34.694 17.9009L1.92431 39.5073L3.57569 42.0119ZM38.7598 20.2185L52.1091 26.3127L53.355 23.5837L40.0056 17.4894L38.7598 20.2185ZM57.6479 25.7431L79.5051 9.69793L77.7298 7.27959L55.8726 23.3247L57.6479 25.7431ZM52.1091 26.3127C53.9222 27.1405 56.0412 26.9225 57.6479 25.7431L55.8726 23.3247C55.1423 23.8608 54.1791 23.9599 53.355 23.5837L52.1091 26.3127ZM36.3454 20.4055C37.0643 19.9315 37.9765 19.8609 38.7598 20.2185L40.0056 17.4894C38.2824 16.7027 36.2755 16.8582 34.694 17.9009L36.3454 20.4055Z" fill="#151719"/>
<path d="M2 66.6279H87.9753" stroke="black" stroke-width="3" stroke-linecap="round" stroke-linejoin="round"/>
</svg>
