<svg width="66" height="50" viewBox="0 0 66 50" fill="none" xmlns="http://www.w3.org/2000/svg">
<path d="M62.0592 0.0390625H4.74337C2.66733 0.0390625 0.984375 1.87138 0.984375 4.13166V45.2202C0.984375 47.4805 2.66733 49.3128 4.74337 49.3128H62.0592C64.1353 49.3128 65.8182 47.4805 65.8182 45.2202V4.13166C65.8182 1.87138 64.1353 0.0390625 62.0592 0.0390625Z" fill="#D9F8EE"/>
<path d="M12.8245 37.6138C16.0196 37.6138 18.6099 35.0235 18.6099 31.8284C18.6099 28.6332 16.0196 26.043 12.8245 26.043C9.62927 26.043 7.03906 28.6332 7.03906 31.8284C7.03906 35.0235 9.62927 37.6138 12.8245 37.6138Z" fill="#22E297"/>
<path d="M28.2073 23.8657C31.4025 23.8657 33.9927 21.2755 33.9927 18.0803C33.9927 14.8851 31.4025 12.2949 28.2073 12.2949C25.0121 12.2949 22.4219 14.8851 22.4219 18.0803C22.4219 21.2755 25.0121 23.8657 28.2073 23.8657Z" fill="#22E297"/>
<path d="M42.0666 34.727C45.2618 34.727 47.852 32.1368 47.852 28.9416C47.852 25.7465 45.2618 23.1562 42.0666 23.1562C38.8715 23.1562 36.2812 25.7465 36.2812 28.9416C36.2812 32.1368 38.8715 34.727 42.0666 34.727Z" fill="#22E297"/>
<path d="M54.8401 24.2446C58.0353 24.2446 60.6255 21.6544 60.6255 18.4592C60.6255 15.264 58.0353 12.6738 54.8401 12.6738C51.6449 12.6738 49.0547 15.264 49.0547 18.4592C49.0547 21.6544 51.6449 24.2446 54.8401 24.2446Z" fill="#22E297"/>
<path d="M17.9844 28.4748L25.9294 19.2656" stroke="black" stroke-width="2.85269" stroke-miterlimit="10"/>
<path d="M15.0903 36.5517C17.6988 36.5517 19.8134 34.4371 19.8134 31.8286C19.8134 29.2201 17.6988 27.1055 15.0903 27.1055C12.4818 27.1055 10.3672 29.2201 10.3672 31.8286C10.3672 34.4371 12.4818 36.5517 15.0903 36.5517Z" fill="#151719"/>
<path d="M38.9153 27.2991L31.4531 19.0117" stroke="black" stroke-width="2.85269" stroke-miterlimit="10"/>
<path d="M28.7388 20.7236C31.3473 20.7236 33.4619 18.609 33.4619 16.0005C33.4619 13.392 31.3473 11.2773 28.7388 11.2773C26.1302 11.2773 24.0156 13.392 24.0156 16.0005C24.0156 18.609 26.1302 20.7236 28.7388 20.7236Z" fill="#151719"/>
<path d="M52.1541 19.1074L45.1484 27.2368" stroke="black" stroke-width="2.85269" stroke-miterlimit="10"/>
<path d="M42.0669 35.5244C44.6754 35.5244 46.79 33.4098 46.79 30.8013C46.79 28.1927 44.6754 26.0781 42.0669 26.0781C39.4584 26.0781 37.3438 28.1927 37.3438 30.8013C37.3438 33.4098 39.4584 35.5244 42.0669 35.5244Z" fill="#151719"/>
<path d="M54.8403 20.7236C57.4488 20.7236 59.5634 18.609 59.5634 16.0005C59.5634 13.392 57.4488 11.2773 54.8403 11.2773C52.2318 11.2773 50.1172 13.392 50.1172 16.0005C50.1172 18.609 52.2318 20.7236 54.8403 20.7236Z" fill="#151719"/>
</svg>
