<svg width="81" height="73" viewBox="0 0 81 73" fill="none" xmlns="http://www.w3.org/2000/svg">
<rect x="16.5" y="26.457" width="9.96471" height="23.5529" fill="#22E297"/>
<rect x="29.1719" y="31.8945" width="9.96471" height="18.1176" fill="#96ECD1"/>
<rect x="41.8594" y="12.8711" width="9.96471" height="37.1412" fill="#22E297"/>
<rect x="54.5469" y="20.1172" width="9.96471" height="29.8941" fill="#96ECD1"/>
<path d="M18.9193 70.847H29.4215C31.6307 70.847 33.4215 69.0562 33.4215 66.847V62.1103C33.4215 59.9012 31.6307 58.1103 29.4215 58.1103H6C3.79086 58.1103 2 56.3195 2 54.1103V6C2 3.79086 3.79086 2 6 2H75C77.2091 2 79 3.79086 79 6V54.1103C79 56.3195 77.2091 58.1103 75 58.1103H51.9238C49.7146 58.1103 47.9238 59.9012 47.9238 62.1103V66.847C47.9238 69.0562 49.7146 70.847 51.9238 70.847H60.6995" stroke="black" stroke-width="3" stroke-linecap="round" stroke-linejoin="round"/>
<path d="M10.1562 50.4648H71.7562" stroke="black" stroke-width="3" stroke-linecap="round" stroke-linejoin="round"/>
</svg>
