<svg width="68" height="72" viewBox="0 0 68 72" fill="none" xmlns="http://www.w3.org/2000/svg">
<path d="M15.5631 30.5856L17.4224 39.35C19.0984 47.25 18.2511 55.477 15 62.8696H51.8456C51.8456 39.5652 43.6908 34.058 37.5 30L39.9346 30.909C42.8168 31.9852 46.0293 31.7155 48.6918 30.1739L49.9423 31.0767C51.6527 32.3114 53.6377 33.1113 55.7263 33.4074L57.4523 33.6522L60.0318 31.1239C62.0137 29.1815 60.9565 27.3837 60.9565 24.6087C55.9104 22.9391 50.6775 15.7971 48.6918 12.4348L43.4354 9.65217V2L36.7774 4.78261L31.6107 5.88156C25.5592 7.16872 20.3926 11.0786 17.5097 16.5528C15.2417 20.8595 14.553 25.8243 15.5631 30.5856Z" stroke="black" stroke-width="3" stroke-linecap="round" stroke-linejoin="round"/>
<rect y="61" width="68" height="11" rx="1" fill="#22E297"/>
</svg>
