<?xml version="1.0" encoding="utf-8"?><svg width="25" height="26" viewBox="0 0 25 26" fill="none" xmlns="http://www.w3.org/2000/svg">
<path d="M7.03521 18.7667C10.3684 18.7667 13.0704 16.0646 13.0704 12.7315C13.0704 9.39834 10.3684 6.69629 7.03521 6.69629C3.70205 6.69629 1 9.39834 1 12.7315C1 16.0646 3.70205 18.7667 7.03521 18.7667Z" stroke="#231F20" stroke-miterlimit="10"/>
<path d="M9.86697 14.5352C9.86697 13.302 9.09049 12.2501 7.99976 11.8418M4.11694 14.5352C4.11694 13.302 4.89342 12.2501 5.98416 11.8418" stroke="black" stroke-linecap="round"/>
<circle cx="6.99187" cy="10.9167" r="1.41668" stroke="black"/>
<path d="M21.1393 15.4724C22.7192 15.4724 23.9999 14.1916 23.9999 12.6117C23.9999 11.0318 22.7192 9.75098 21.1393 9.75098C19.5593 9.75098 18.2786 11.0318 18.2786 12.6117C18.2786 14.1916 19.5593 15.4724 21.1393 15.4724Z" stroke="#231F20" stroke-miterlimit="10"/>
<path d="M18.2787 6.72138C19.8586 6.72138 21.1393 5.4406 21.1393 3.86069C21.1393 2.28077 19.8586 1 18.2787 1C16.6987 1 15.418 2.28077 15.418 3.86069C15.418 5.4406 16.6987 6.72138 18.2787 6.72138Z" stroke="#231F20" stroke-miterlimit="10"/>
<path d="M18.2787 24.8513C19.8586 24.8513 21.1393 23.5705 21.1393 21.9906C21.1393 20.4107 19.8586 19.1299 18.2787 19.1299C16.6987 19.1299 15.418 20.4107 15.418 21.9906C15.418 23.5705 16.6987 24.8513 18.2787 24.8513Z" stroke="#231F20" stroke-miterlimit="10"/>
<path d="M13.0703 12.7686L18.502 12.7686" stroke="#231F20" stroke-miterlimit="10"/>
<path d="M11.8633 9.14775L16.1723 5.78613" stroke="#231F20" stroke-miterlimit="10"/>
<path d="M11.5615 16.6914L16.1723 20.3487" stroke="#231F20" stroke-miterlimit="10"/>
</svg>
