<?xml version="1.0" encoding="utf-8"?><svg width="26" height="27" viewBox="0 0 26 27" fill="none" xmlns="http://www.w3.org/2000/svg">
<path d="M9.18262 22.2698C9.30586 22.0965 9.46979 21.9562 9.66 21.861C9.85021 21.7659 10.0609 21.719 10.2735 21.7244H17.9095C18.5149 21.7244 21.8475 18.3809 22.2729 17.9064C23.3099 16.5359 24.2226 15.0756 25.0001 13.543C24.7202 13.2625 24.3693 13.0636 23.9849 12.9675C23.6006 12.8714 23.1973 12.8818 22.8184 12.9975C21.853 13.2212 21.2857 13.9139 20.6367 15.1793L18.1386 16.4774" stroke="#151719" stroke-linejoin="round"/>
<path d="M12.4551 18.4518H16.8186C19.0003 18.4518 19.0003 15.7246 16.8186 15.7246H13.9387C13.4805 15.7246 12.6297 14.6338 11.9097 14.6338H9.18253C8.35558 14.7491 7.58921 15.1323 7.00081 15.7246L4.81909 17.9064" stroke="#151719" stroke-linejoin="round"/>
<path d="M3.72674 16.8187L1 19.5454L7.54495 26.0904L10.2717 23.3636L3.72674 16.8187Z" stroke="#151719" stroke-linejoin="round"/>
<path d="M3.72827 19.543L4.81913 20.6338" stroke="#151719" stroke-linejoin="round"/>
<path d="M22.202 13.2324C22.248 12.9749 22.2718 12.714 22.2729 12.4524C22.2729 9.59438 20.4839 6.99813 17.364 4.81641" stroke="#151719" stroke-miterlimit="10" stroke-linejoin="round"/>
<path d="M14.6369 4.81641C11.517 6.99813 9.72803 9.58347 9.72803 12.4524C9.71526 13.2323 9.95015 13.9962 10.3989 14.6342" stroke="#151719" stroke-miterlimit="10" stroke-linejoin="round"/>
<path d="M17.3638 4.8162C17.222 5.03437 16.3657 5.14346 16.0003 5.14346C15.5247 5.15742 15.0541 5.04446 14.6367 4.8162C14.6367 4.8162 13.0549 1.88724 13.1204 1.7727C13.6658 0.74729 14.8821 0.943644 16.0003 1.22727C16.8197 1.47592 17.6756 1.5829 18.5311 1.54362C18.5583 1.95815 17.3638 4.8162 17.3638 4.8162Z" stroke="#151719" stroke-miterlimit="10" stroke-linejoin="round"/>
<path d="M14.0913 11.9069V12.4523C14.0913 12.7416 14.2062 13.0191 14.4108 13.2237C14.6154 13.4282 14.8929 13.5432 15.1822 13.5432H16.273C16.5623 13.5432 16.8398 13.4282 17.0444 13.2237C17.249 13.0191 17.3639 12.7416 17.3639 12.4523V12.1469C17.3641 11.9175 17.292 11.6939 17.1579 11.5079C17.0237 11.3218 16.8343 11.1828 16.6167 11.1106L14.8385 10.5215C14.6209 10.4492 14.4315 10.3102 14.2973 10.1242C14.1632 9.93813 14.0911 9.71453 14.0913 9.48517V9.17973C14.0913 8.89041 14.2062 8.61295 14.4108 8.40837C14.6154 8.2038 14.8929 8.08887 15.1822 8.08887H16.273C16.5623 8.08887 16.8398 8.2038 17.0444 8.40837C17.249 8.61295 17.3639 8.89041 17.3639 9.17973V9.72516" stroke="#151719" stroke-miterlimit="10" stroke-linejoin="round"/>
<path d="M15.7278 8.08891V6.99805" stroke="#151719" stroke-miterlimit="10" stroke-linejoin="round"/>
<path d="M15.7278 13.543V14.6338" stroke="#151719" stroke-miterlimit="10" stroke-linejoin="round"/>
</svg>
