<?xml version="1.0" encoding="utf-8"?><svg width="23" height="23" viewBox="0 0 23 23" fill="none" xmlns="http://www.w3.org/2000/svg">
<path d="M13.2982 13.3018C12.8419 13.7575 12.2233 14.0135 11.5784 14.0135C10.9335 14.0135 10.315 13.7575 9.85864 13.3018" stroke="#151719" stroke-linecap="round" stroke-linejoin="round"/>
<path d="M9.85864 9.86211C10.315 9.40637 10.9335 9.15039 11.5784 9.15039C12.2233 9.15039 12.8419 9.40637 13.2982 9.86211" stroke="#151719" stroke-linecap="round" stroke-linejoin="round"/>
<path d="M19.0335 19.0368C17.3064 20.7783 15.0263 21.8633 12.5855 22.1051C10.1448 22.347 7.69609 21.7305 5.66081 20.3618C3.62554 18.9931 2.13098 16.9578 1.43433 14.6061C0.737691 12.2544 0.882532 9.73346 1.84393 7.47705" stroke="#151719" stroke-linecap="round" stroke-linejoin="round"/>
<path d="M4.12329 4.12277C5.85043 2.37985 8.13128 1.29376 10.573 1.05153C13.0148 0.809301 15.4645 1.4261 17.5005 2.79571C19.5364 4.16531 21.031 6.20199 21.7269 8.55497C22.4227 10.9079 22.2763 13.4299 21.3129 15.6866" stroke="#151719" stroke-linecap="round" stroke-linejoin="round"/>
<path d="M6.99108 16.1694C6.08409 15.2618 5.46649 14.1057 5.21633 12.8472C4.96618 11.5887 5.09469 10.2844 5.58563 9.09889C6.07657 7.91342 6.90791 6.90009 7.97458 6.18696C9.04125 5.47382 10.2954 5.09288 11.5785 5.09229" stroke="#151719" stroke-linecap="round" stroke-linejoin="round"/>
<path d="M16.1658 6.99463C17.0728 7.90222 17.6904 9.0583 17.9405 10.3168C18.1907 11.5753 18.0622 12.8797 17.5712 14.0651C17.0803 15.2506 16.249 16.2639 15.1823 16.9771C14.1156 17.6902 12.8615 18.0711 11.5784 18.0717" stroke="#151719" stroke-linecap="round" stroke-linejoin="round"/>
<path d="M16.166 6.99459L19.0337 4.12695" stroke="#151719" stroke-linecap="round" stroke-linejoin="round"/>
<path d="M6.99093 16.1694L4.12329 19.0371" stroke="#151719" stroke-linecap="round" stroke-linejoin="round"/>
<path d="M9.8586 9.86226L6.99097 6.99463" stroke="#151719" stroke-linecap="round" stroke-linejoin="round"/>
<path d="M13.2983 13.3018L16.166 16.1694" stroke="#151719" stroke-linecap="round" stroke-linejoin="round"/>
</svg>
