<?xml version="1.0" encoding="utf-8"?><svg width="19" height="24" viewBox="0 0 19 24" fill="none" xmlns="http://www.w3.org/2000/svg">
<path d="M4.20324 2.60156V18.0839C4.20324 18.5087 4.0345 18.916 3.73414 19.2164C3.43377 19.5168 3.0264 19.6855 2.60162 19.6855C2.17684 19.6855 1.76946 19.5168 1.4691 19.2164C1.16874 18.916 1 18.5087 1 18.0839V11.6774H3.13549" stroke="#151719" stroke-miterlimit="10" stroke-linejoin="round"/>
<path d="M2.60181 19.6855H5.27117" stroke="#151719" stroke-miterlimit="10" stroke-linejoin="round"/>
<path d="M4.20337 3.13549C4.20337 2.56912 4.42836 2.02595 4.82884 1.62547C5.22932 1.22499 5.77249 1 6.33886 1C6.90523 1 7.4484 1.22499 7.84888 1.62547C8.24937 2.02595 8.47435 2.56912 8.47435 3.13549V9.0081H15.9486V3.13549C15.9486 2.56912 15.7236 2.02595 15.3231 1.62547C14.9226 1.22499 14.3795 1 13.8131 1H6.33886" stroke="#151719" stroke-miterlimit="10" stroke-linejoin="round"/>
<path d="M17.0163 6.33887C17.2995 6.33887 17.5711 6.45136 17.7713 6.6516C17.9716 6.85184 18.0841 7.12343 18.0841 7.40661V21.8212C18.0841 22.1044 17.9716 22.376 17.7713 22.5762C17.5711 22.7764 17.2995 22.8889 17.0163 22.8889H7.40661C7.12343 22.8889 6.85184 22.7764 6.6516 22.5762C6.45136 22.376 6.33887 22.1044 6.33887 21.8212V7.40661C6.33887 7.12343 6.45136 6.85184 6.6516 6.6516C6.85184 6.45136 7.12343 6.33887 7.40661 6.33887" stroke="#151719" stroke-miterlimit="10" stroke-linejoin="round"/>
<path d="M7.40649 9.0083H8.47424" stroke="#151719" stroke-miterlimit="10" stroke-linejoin="round"/>
<path d="M7.94043 15.9482H10.0759" stroke="#151719" stroke-miterlimit="10" stroke-linejoin="round"/>
<path d="M11.1436 15.9482H13.279" stroke="#151719" stroke-miterlimit="10" stroke-linejoin="round"/>
<path d="M14.3467 15.9482H16.4822" stroke="#151719" stroke-miterlimit="10" stroke-linejoin="round"/>
<path d="M7.94043 18.084H10.0759" stroke="#151719" stroke-miterlimit="10" stroke-linejoin="round"/>
<path d="M11.1436 18.084H13.279" stroke="#151719" stroke-miterlimit="10" stroke-linejoin="round"/>
<path d="M14.3467 18.084H16.4822" stroke="#151719" stroke-miterlimit="10" stroke-linejoin="round"/>
<path d="M7.94043 20.2192H10.0759" stroke="#151719" stroke-miterlimit="10" stroke-linejoin="round"/>
<path d="M11.1436 20.2192H13.279" stroke="#151719" stroke-miterlimit="10" stroke-linejoin="round"/>
<path d="M14.3467 20.2192H16.4822" stroke="#151719" stroke-miterlimit="10" stroke-linejoin="round"/>
<path d="M15.9485 9.0083H17.0162" stroke="#151719" stroke-miterlimit="10" stroke-linejoin="round"/>
<path d="M15.9486 11.1436H8.47437V13.279H15.9486V11.1436Z" stroke="#151719" stroke-miterlimit="10" stroke-linejoin="round"/>
</svg>
