<?xml version="1.0" encoding="utf-8"?><svg width="28" height="25" viewBox="0 0 28 25" fill="none" xmlns="http://www.w3.org/2000/svg">
<path d="M7.2417 7.96805C8.28463 6.52573 9.7578 5.45102 11.4497 4.89824C13.1415 4.34547 14.9651 4.34306 16.6584 4.89137C18.3517 5.43968 19.8277 6.5105 20.8744 7.95006C21.9211 9.38962 22.4848 11.1239 22.4843 12.9037V13.7748H21.323L24.2263 18.4201L27.1297 13.7748H25.9683V12.9037C25.9683 9.74668 24.7142 6.71891 22.4818 4.48652C20.2494 2.25414 17.2217 1 14.0646 1" stroke="#151719" stroke-linecap="round" stroke-linejoin="round"/>
<path d="M12.2163 13.9069V14.4523C12.2163 14.7416 12.3312 15.0191 12.5358 15.2237C12.7404 15.4282 13.0179 15.5432 13.3072 15.5432H14.398C14.6873 15.5432 14.9648 15.4282 15.1694 15.2237C15.374 15.0191 15.4889 14.7416 15.4889 14.4523V14.1469C15.4891 13.9175 15.417 13.6939 15.2829 13.5079C15.1487 13.3218 14.9593 13.1828 14.7417 13.1106L12.9635 12.5215C12.7459 12.4492 12.5565 12.3102 12.4223 12.1242C12.2882 11.9381 12.2161 11.7145 12.2163 11.4852V11.1797C12.2163 10.8904 12.3312 10.6129 12.5358 10.4084C12.7404 10.2038 13.0179 10.0889 13.3072 10.0889H14.398C14.6873 10.0889 14.9648 10.2038 15.1694 10.4084C15.374 10.6129 15.4889 10.8904 15.4889 11.1797V11.7252" stroke="#151719" stroke-miterlimit="10" stroke-linejoin="round"/>
<path d="M13.8528 10.0889V8.99805" stroke="#151719" stroke-miterlimit="10" stroke-linejoin="round"/>
<path d="M13.8528 15.543V16.6338" stroke="#151719" stroke-miterlimit="10" stroke-linejoin="round"/>
<path d="M20.888 17.2588C19.845 18.7011 18.3719 19.7758 16.68 20.3286C14.9881 20.8814 13.1646 20.8838 11.4713 20.3355C9.77798 19.7872 8.30198 18.7164 7.25525 17.2768C6.20852 15.8372 5.64491 14.103 5.64537 12.3231V11.4521H6.80671L3.90335 6.22607L1 11.4521H2.16134V12.3231C2.16134 15.4802 3.41549 18.508 5.64787 20.7403C7.88026 22.9727 10.908 24.2269 14.0651 24.2269" stroke="#151719" stroke-linecap="round" stroke-linejoin="round"/>
</svg>
