<?xml version="1.0" encoding="utf-8"?><svg width="26" height="24" viewBox="0 0 26 24" fill="none" xmlns="http://www.w3.org/2000/svg">
<path d="M20.1707 9.99148L17.4215 1.71259C17.3342 1.45271 17.1484 1.23752 16.904 1.11336C16.6596 0.989202 16.3762 0.966022 16.1148 1.04881L1.71563 5.81022C1.45333 5.8974 1.23624 6.08491 1.11184 6.33174C0.98745 6.57857 0.965879 6.86462 1.05185 7.12732L4.01009 16.0595C4.05323 16.19 4.12167 16.3107 4.21151 16.4147C4.30134 16.5187 4.41079 16.604 4.53361 16.6656C4.65643 16.7273 4.7902 16.7641 4.92727 16.774C5.06434 16.7839 5.20201 16.7667 5.33241 16.7233L6.18435 16.4515" stroke="#151719" stroke-miterlimit="10" stroke-linejoin="round"/>
<path d="M17.9182 3.20215L1.54858 8.63256" stroke="#151719" stroke-miterlimit="10" stroke-linejoin="round"/>
<path d="M18.7388 5.67969L2.36914 11.1101" stroke="#151719" stroke-miterlimit="10" stroke-linejoin="round"/>
<path d="M23.9546 11.5596H8.79751C8.2202 11.5596 7.7522 12.0276 7.7522 12.6049V22.0127C7.7522 22.59 8.2202 23.058 8.79751 23.058H23.9546C24.5319 23.058 24.9999 22.59 24.9999 22.0127V12.6049C24.9999 12.0276 24.5319 11.5596 23.9546 11.5596Z" stroke="#151719" stroke-miterlimit="10" stroke-linejoin="round"/>
<path d="M9.84277 19.9219H11.9334" stroke="#151719" stroke-miterlimit="10" stroke-linejoin="round"/>
<path d="M13.5015 19.9219H15.5921" stroke="#151719" stroke-miterlimit="10" stroke-linejoin="round"/>
<path d="M17.1602 19.9219H19.2508" stroke="#151719" stroke-miterlimit="10" stroke-linejoin="round"/>
<path d="M20.8188 19.9219H22.9095" stroke="#151719" stroke-miterlimit="10" stroke-linejoin="round"/>
<path d="M22.9093 15.7408C22.9093 16.1567 22.7441 16.5555 22.4501 16.8495C22.156 17.1436 21.7572 17.3088 21.3414 17.3088H20.8187C20.4029 17.3088 20.004 17.1436 19.71 16.8495C19.4159 16.5555 19.2507 16.1567 19.2507 15.7408C19.2507 15.325 19.4159 14.9262 19.71 14.6321C20.004 14.338 20.4029 14.1729 20.8187 14.1729H21.3414C21.7572 14.1729 22.156 14.338 22.4501 14.6321C22.7441 14.9262 22.9093 15.325 22.9093 15.7408Z" stroke="#151719" stroke-miterlimit="10" stroke-linejoin="round"/>
</svg>
