<svg width="28" height="28" viewBox="0 0 28 28" fill="none" xmlns="http://www.w3.org/2000/svg">
<path fill-rule="evenodd" clip-rule="evenodd" d="M7.46675 4.66663H11.2001V5.59996H16.8001V4.66663H20.5334V5.59996H22.3334C22.8857 5.59996 23.3334 6.04767 23.3334 6.59996V9.26663C23.3334 9.81891 22.8857 10.2666 22.3334 10.2666H5.60008V19.1C5.60008 19.3761 5.82394 19.6 6.10008 19.6H10.2667V20.5333H5.66675C5.11446 20.5333 4.66675 20.0856 4.66675 19.5333V6.59996C4.66675 6.04767 5.11446 5.59996 5.66675 5.59996H7.46675V4.66663ZM21.9001 6.53329C22.1762 6.53329 22.4001 6.75715 22.4001 7.03329V8.83329C22.4001 9.10943 22.1762 9.33329 21.9001 9.33329H5.60008V7.03329C5.60008 6.75715 5.82394 6.53329 6.10008 6.53329H21.9001Z" fill="#151719"/>
<path d="M8.40008 12.1333H7.46675V13.0666H8.40008V12.1333Z" fill="#151719"/>
<path d="M9.33342 12.1333H10.2667V13.0666H9.33342V12.1333Z" fill="#151719"/>
<path d="M12.1334 12.1333H11.2001V13.0666H12.1334V12.1333Z" fill="#151719"/>
<path d="M7.46675 14H8.40008V14.9333H7.46675V14Z" fill="#151719"/>
<path d="M8.40008 15.8666H7.46675V16.8H8.40008V15.8666Z" fill="#151719"/>
<path d="M9.33342 14H10.2667V14.9333H9.33342V14Z" fill="#151719"/>
<path d="M10.2667 15.8666H9.33342V16.8H10.2667V15.8666Z" fill="#151719"/>
<path d="M11.2001 14H12.1334V14.9333H11.2001V14Z" fill="#151719"/>
<path d="M23.3334 13.0666C23.5911 13.0666 23.8001 13.2756 23.8001 13.5333V16.3333C23.8001 16.4571 23.7509 16.5758 23.6634 16.6633C23.5759 16.7508 23.4572 16.8 23.3334 16.8H20.5334C20.2757 16.8 20.0667 16.591 20.0667 16.3333C20.0667 16.0756 20.2757 15.8666 20.5334 15.8666H22.2416C21.7433 15.0036 20.98 14.32 20.0609 13.9203C19.0419 13.4773 17.8983 13.4123 16.8357 13.7372C15.7731 14.0621 14.8613 14.7554 14.2643 15.6926C13.6672 16.6297 13.4242 17.7491 13.5788 18.8494C13.7335 19.9498 14.2757 20.9588 15.1079 21.6951C15.9401 22.4314 17.0077 22.8465 18.1187 22.8659C19.2296 22.8853 20.3111 22.5077 21.1685 21.8009C22.0258 21.0941 22.6029 20.1046 22.7959 19.0103C22.8406 18.7565 23.0827 18.587 23.3365 18.6318C23.5903 18.6765 23.7598 18.9186 23.715 19.1724C23.4835 20.4855 22.791 21.6729 21.7621 22.5211C20.7333 23.3692 19.4355 23.8224 18.1024 23.7991C16.7692 23.7758 15.4881 23.2776 14.4894 22.3941C13.4908 21.5106 12.8402 20.2997 12.6546 18.9793C12.469 17.6589 12.7607 16.3156 13.4771 15.1911C14.1935 14.0665 15.2877 13.2345 16.5628 12.8447C17.8379 12.4548 19.2103 12.5327 20.4331 13.0644C21.4289 13.4974 22.2723 14.2082 22.8667 15.1044V13.5333C22.8667 13.2756 23.0757 13.0666 23.3334 13.0666Z" fill="#151719"/>
</svg>
