<?xml version="1.0" encoding="utf-8"?><svg width="117" height="17" viewBox="0 0 117 17" fill="none" xmlns="http://www.w3.org/2000/svg">
<path d="M9.88816 6.93628C9.88816 7.86811 9.76334 8.70674 9.51369 9.45221C9.26405 10.1977 8.9066 10.8325 8.44135 11.3566C7.9761 11.8808 7.4144 12.2855 6.75625 12.5709C6.09809 12.8563 5.36619 12.999 4.5605 12.999H0.186035V0.873589H4.5605C5.37753 0.873589 6.11511 1.01336 6.77327 1.29291C7.43142 1.57246 7.99029 1.9743 8.44987 2.49846C8.90944 3.02261 9.26405 3.66032 9.51369 4.41161C9.76334 5.1629 9.88816 6.00444 9.88816 6.93628ZM7.64135 6.91881C7.64135 6.47619 7.5988 6.02484 7.51369 5.56475C7.42859 5.10466 7.27256 4.68534 7.04561 4.30678C6.81866 3.92823 6.5066 3.61956 6.10944 3.38078C5.71228 3.142 5.19597 3.02261 4.5605 3.02261H2.43284V10.8499H4.5605C5.23001 10.8499 5.76618 10.7131 6.16901 10.4394C6.57185 10.1656 6.88391 9.83076 7.10518 9.43473C7.32646 9.03871 7.47114 8.61356 7.53923 8.1593C7.60731 7.70503 7.64135 7.29154 7.64135 6.91881ZM18.7562 11.4265L18.6711 11.5488C18.2853 12.073 17.7917 12.4806 17.1903 12.7718C16.5889 13.063 15.8967 13.2086 15.1137 13.2086C14.5009 13.2086 13.9222 13.0863 13.3775 12.8417C12.8328 12.5971 12.3562 12.2622 11.9477 11.8371C11.5392 11.412 11.2158 10.914 10.9775 10.3433C10.7392 9.77252 10.6201 9.16102 10.6201 8.50874C10.6201 7.85646 10.7392 7.24203 10.9775 6.66547C11.2158 6.0889 11.5392 5.58804 11.9477 5.1629C12.3562 4.73775 12.8328 4.39996 13.3775 4.14954C13.9222 3.89911 14.5009 3.77389 15.1137 3.77389C15.7605 3.77389 16.3704 3.89911 16.9435 4.14954C17.5165 4.39996 18.0073 4.76687 18.4158 5.25025C18.8243 5.73364 19.1307 6.32477 19.335 7.02363C19.5392 7.7225 19.6016 8.51455 19.5222 9.3998H12.9009C13.0484 9.95889 13.318 10.3957 13.7094 10.7102C14.1009 11.0247 14.5633 11.1819 15.0967 11.1819C15.4371 11.1819 15.7633 11.1149 16.0754 10.981C16.3875 10.847 16.6399 10.6286 16.8328 10.3258L18.7562 11.4265ZM17.2924 7.51285C17.1562 6.98869 16.8924 6.57228 16.5009 6.26361C16.1094 5.95495 15.6414 5.80061 15.0967 5.80061C14.586 5.80061 14.1378 5.95495 13.752 6.26361C13.3662 6.57228 13.0938 6.98869 12.935 7.51285H17.2924ZM25.4797 12.999H23.0626L19.7435 4.00103H22.0924L24.2711 10.7102L26.4669 4.00103H28.7818L25.4797 12.999ZM37.1052 11.4265L37.0201 11.5488C36.6343 12.073 36.1406 12.4806 35.5392 12.7718C34.9378 13.063 34.2456 13.2086 33.4626 13.2086C32.8499 13.2086 32.2711 13.0863 31.7265 12.8417C31.1818 12.5971 30.7052 12.2622 30.2967 11.8371C29.8882 11.412 29.5648 10.914 29.3265 10.3433C29.0882 9.77252 28.969 9.16102 28.969 8.50874C28.969 7.85646 29.0882 7.24203 29.3265 6.66547C29.5648 6.0889 29.8882 5.58804 30.2967 5.1629C30.7052 4.73775 31.1818 4.39996 31.7265 4.14954C32.2711 3.89911 32.8499 3.77389 33.4626 3.77389C34.1094 3.77389 34.7194 3.89911 35.2924 4.14954C35.8655 4.39996 36.3562 4.76687 36.7648 5.25025C37.1733 5.73364 37.4797 6.32477 37.6839 7.02363C37.8882 7.7225 37.9506 8.51455 37.8711 9.3998H31.2499C31.3974 9.95889 31.6669 10.3957 32.0584 10.7102C32.4499 11.0247 32.9123 11.1819 33.4456 11.1819C33.786 11.1819 34.1123 11.1149 34.4243 10.981C34.7364 10.847 34.9889 10.6286 35.1818 10.3258L37.1052 11.4265ZM35.6414 7.51285C35.5052 6.98869 35.2414 6.57228 34.8499 6.26361C34.4584 5.95495 33.9903 5.80061 33.4456 5.80061C32.935 5.80061 32.4867 5.95495 32.1009 6.26361C31.7151 6.57228 31.4428 6.98869 31.2839 7.51285H35.6414ZM41.3945 12.999H39.1477V0H41.3945V12.999ZM47.0286 3.77389C47.6414 3.77389 48.2144 3.89329 48.7477 4.13207C49.2811 4.37085 49.7492 4.70281 50.152 5.12795C50.5548 5.5531 50.8726 6.05396 51.1052 6.63052C51.3378 7.20709 51.4541 7.83316 51.4541 8.50874C51.4541 9.18431 51.3378 9.80747 51.1052 10.3782C50.8726 10.949 50.5548 11.444 50.152 11.8633C49.7492 12.2826 49.2811 12.6117 48.7477 12.8505C48.2144 13.0892 47.6414 13.2086 47.0286 13.2086C46.4158 13.2086 45.8428 13.0892 45.3094 12.8505C44.7761 12.6117 44.3109 12.2826 43.9137 11.8633C43.5165 11.444 43.2016 10.949 42.969 10.3782C42.7364 9.80747 42.6201 9.18431 42.6201 8.50874C42.6201 7.83316 42.7364 7.20709 42.969 6.63052C43.2016 6.05396 43.5165 5.5531 43.9137 5.12795C44.3109 4.70281 44.7761 4.37085 45.3094 4.13207C45.8428 3.89329 46.4158 3.77389 47.0286 3.77389ZM47.0286 11.0946C47.3236 11.0946 47.6016 11.0334 47.8626 10.9111C48.1236 10.7888 48.3534 10.6141 48.552 10.3869C48.7506 10.1598 48.9066 9.889 49.0201 9.57451C49.1336 9.26002 49.1903 8.91059 49.1903 8.52621C49.1903 8.14183 49.1336 7.78657 49.0201 7.46043C48.9066 7.13429 48.7506 6.85474 48.552 6.62179C48.3534 6.38883 48.1236 6.20829 47.8626 6.08016C47.6016 5.95204 47.3236 5.88797 47.0286 5.88797C46.7336 5.88797 46.4527 5.95204 46.186 6.08016C45.9194 6.20829 45.6896 6.38883 45.4967 6.62179C45.3038 6.85474 45.1506 7.13429 45.0371 7.46043C44.9236 7.78657 44.8669 8.14183 44.8669 8.52621C44.8669 8.91059 44.9236 9.26002 45.0371 9.57451C45.1506 9.889 45.3038 10.1598 45.4967 10.3869C45.6896 10.6141 45.9194 10.7888 46.186 10.9111C46.4527 11.0334 46.7336 11.0946 47.0286 11.0946ZM61.6499 8.47379C61.6499 9.13772 61.5392 9.75797 61.318 10.3345C61.0967 10.9111 60.7988 11.412 60.4243 11.8371C60.0499 12.2622 59.6101 12.5942 59.1052 12.833C58.6002 13.0718 58.0584 13.1912 57.4797 13.1912C56.969 13.1912 56.4953 13.098 56.0584 12.9116C55.6215 12.7252 55.2385 12.4632 54.9094 12.1254V17H52.6456V4.00103H54.8073V4.9445C55.1477 4.58342 55.5449 4.30096 55.9988 4.09712C56.4527 3.89328 56.9463 3.79137 57.4797 3.79137C58.0584 3.79137 58.6002 3.91075 59.1052 4.14954C59.6101 4.38832 60.0499 4.71737 60.4243 5.13669C60.7988 5.55601 61.0967 6.05104 61.318 6.62179C61.5392 7.19253 61.6499 7.80987 61.6499 8.47379ZM59.4031 8.47379C59.4031 8.11271 59.3435 7.77783 59.2243 7.46917C59.1052 7.1605 58.9435 6.8926 58.7392 6.66547C58.535 6.43833 58.2967 6.2607 58.0243 6.13258C57.752 6.00445 57.4626 5.94039 57.1562 5.94039C56.8499 5.94039 56.5605 6.00736 56.2882 6.14131C56.0158 6.27526 55.7775 6.4558 55.5733 6.68294C55.369 6.91007 55.2073 7.17797 55.0882 7.48664C54.969 7.7953 54.9094 8.12436 54.9094 8.47379C54.9094 8.82323 54.969 9.15519 55.0882 9.46968C55.2073 9.78417 55.369 10.0579 55.5733 10.2909C55.7775 10.5238 56.0158 10.7073 56.2882 10.8412C56.5605 10.9752 56.8499 11.0421 57.1562 11.0421C57.4626 11.0421 57.752 10.9781 58.0243 10.8499C58.2967 10.7218 58.535 10.5413 58.7392 10.3083C58.9435 10.0754 59.1052 9.80456 59.2243 9.49589C59.3435 9.18722 59.4031 8.84652 59.4031 8.47379ZM70.4669 11.4265L70.3818 11.5488C69.996 12.073 69.5023 12.4806 68.9009 12.7718C68.2995 13.063 67.6073 13.2086 66.8243 13.2086C66.2116 13.2086 65.6328 13.0863 65.0882 12.8417C64.5435 12.5971 64.0669 12.2622 63.6584 11.8371C63.2499 11.412 62.9265 10.914 62.6882 10.3433C62.4499 9.77252 62.3307 9.16102 62.3307 8.50874C62.3307 7.85646 62.4499 7.24203 62.6882 6.66547C62.9265 6.0889 63.2499 5.58804 63.6584 5.1629C64.0669 4.73775 64.5435 4.39996 65.0882 4.14954C65.6328 3.89911 66.2116 3.77389 66.8243 3.77389C67.4711 3.77389 68.0811 3.89911 68.6541 4.14954C69.2272 4.39996 69.7179 4.76687 70.1265 5.25025C70.535 5.73364 70.8414 6.32477 71.0456 7.02363C71.2499 7.7225 71.3123 8.51455 71.2328 9.3998H64.6116C64.7591 9.95889 65.0286 10.3957 65.4201 10.7102C65.8116 11.0247 66.274 11.1819 66.8073 11.1819C67.1477 11.1819 67.474 11.1149 67.786 10.981C68.0981 10.847 68.3506 10.6286 68.5435 10.3258L70.4669 11.4265ZM69.0031 7.51285C68.8669 6.98869 68.6031 6.57228 68.2116 6.26361C67.8201 5.95495 67.352 5.80061 66.8073 5.80061C66.2967 5.80061 65.8484 5.95495 65.4626 6.26361C65.0768 6.57228 64.8045 6.98869 64.6456 7.51285H69.0031ZM77.4286 6.06269C76.9747 6.00446 76.5662 6.01319 76.2031 6.0889C75.8399 6.16461 75.5279 6.34224 75.2669 6.62179C75.0286 6.87804 74.8754 7.17797 74.8073 7.52158C74.7392 7.86519 74.7052 8.21754 74.7052 8.57862V12.999H72.4584V4.00103H74.6031V4.89209C74.9662 4.43782 75.3946 4.12333 75.8882 3.94862C76.3818 3.7739 76.8953 3.73313 77.4286 3.82631V6.06269ZM85.8201 10.5704L85.0201 12.999H82.6371L86.7562 0.873589H89.5988L93.7179 12.999H91.335L90.535 10.5704H85.8201ZM88.169 3.44193L86.5179 8.42137H89.8201L88.169 3.44193ZM103.505 4.78725C103.505 5.34635 103.414 5.86468 103.233 6.34224C103.051 6.8198 102.793 7.23038 102.458 7.57399C102.124 7.9176 101.718 8.1855 101.241 8.37769C100.765 8.56988 100.237 8.66598 99.6584 8.66598H96.8839V12.999H94.6371V0.873589H99.6073C100.22 0.873589 100.77 0.966767 101.258 1.15313C101.746 1.3395 102.155 1.60158 102.484 1.93936C102.813 2.27715 103.065 2.68773 103.241 3.17112C103.417 3.6545 103.505 4.19321 103.505 4.78725ZM96.8839 3.02261V6.5519H99.5903C100.112 6.5519 100.521 6.41212 100.816 6.13258C101.111 5.85303 101.258 5.40459 101.258 4.78725C101.258 4.16992 101.111 3.72148 100.816 3.44193C100.521 3.16239 100.112 3.02261 99.5903 3.02261H96.8839ZM106.978 12.999H104.731V0.873589H106.978V12.999ZM116.186 10.1686C116.186 10.6112 116.09 11.0188 115.897 11.3916C115.704 11.7643 115.437 12.0846 115.097 12.3525C114.756 12.6204 114.351 12.8301 113.88 12.9815C113.409 13.1329 112.895 13.2086 112.339 13.2086C111.829 13.2086 111.349 13.1475 110.901 13.0252C110.453 12.9029 110.053 12.7252 109.701 12.4923C109.349 12.2593 109.051 11.9769 108.807 11.6449C108.563 11.3129 108.385 10.9373 108.271 10.518L110.484 10.1161C110.563 10.3025 110.674 10.4597 110.816 10.5879C110.958 10.716 111.114 10.8179 111.284 10.8936C111.454 10.9693 111.633 11.0247 111.82 11.0596C112.007 11.0946 112.18 11.112 112.339 11.112C112.793 11.112 113.17 11.045 113.471 10.9111C113.772 10.7771 113.922 10.5762 113.922 10.3083C113.922 10.1802 113.9 10.0695 113.854 9.97636C113.809 9.88318 113.718 9.80164 113.582 9.73175C113.446 9.66187 113.258 9.5949 113.02 9.53083C112.782 9.46677 112.47 9.40561 112.084 9.34737C111.687 9.28914 111.275 9.21052 110.85 9.11151C110.424 9.0125 110.03 8.86399 109.667 8.66598C109.304 8.46797 109.006 8.2088 108.773 7.88849C108.541 7.56817 108.424 7.15759 108.424 6.65673C108.424 6.3073 108.501 5.95786 108.654 5.60843C108.807 5.25899 109.037 4.95033 109.343 4.68243C109.65 4.41453 110.039 4.19613 110.509 4.02723C110.98 3.85834 111.534 3.77389 112.169 3.77389C113.088 3.77389 113.877 3.98938 114.535 4.42035C115.193 4.85132 115.636 5.4337 115.863 6.16752L113.616 6.5519C113.536 6.35389 113.375 6.18499 113.131 6.04522C112.887 5.90545 112.566 5.83556 112.169 5.83556C111.647 5.83556 111.273 5.91418 111.046 6.07143C110.819 6.22867 110.705 6.38883 110.705 6.5519C110.705 6.78486 110.858 6.95375 111.165 7.05858C111.471 7.16341 111.897 7.26242 112.441 7.3556C112.986 7.44878 113.488 7.55653 113.948 7.67883C114.407 7.80113 114.802 7.9642 115.131 8.16803C115.46 8.37187 115.718 8.63395 115.905 8.95426C116.092 9.27458 116.186 9.67934 116.186 10.1686Z" fill="#151719"/>
</svg>
