<?xml version="1.0" encoding="utf-8"?><svg width="102" height="22" viewBox="0 0 102 22" fill="none" xmlns="http://www.w3.org/2000/svg">
<path d="M0 7.12849V11.3073H15.5758V7.12849H0ZM0 14.257V18.4358H15.5758V14.257H0ZM68.6061 17.8827H62.4848C61.4545 17.8827 60.8485 17.3296 60.8485 16.3464C60.8485 15.3631 61.4545 14.8101 62.4848 14.8101H68.6061V17.8827ZM65.7576 3.50279H57.5758V7.68156H60.0606H65.5152C67.9394 7.68156 68.6061 8.60335 68.6061 10.8156H62.2424C58.4848 10.8156 56.4242 12.7821 56.4242 16.4078C56.4242 20.0335 58.4848 22 62.2424 22H72.9697V10.6313C73.0303 5.83799 71.2121 3.50279 65.7576 3.50279ZM83.6364 17.7598C80.8485 17.7598 79.8182 16.4078 79.8182 12.7207C79.8182 9.03352 80.8485 7.68156 83.6364 7.68156H89.5152V3.50279H83.1515C77.5152 3.50279 75.3333 6.32961 75.3333 12.7207C75.3333 19.0503 77.5152 21.9385 83.1515 21.9385H89.5758V17.7598H83.6364ZM27.8788 17.7598C25.5758 17.7598 24.4848 16.8994 24.1818 14.8101H33.8788V11.4916V11.4302V10.6927H24.1818C24.4848 8.5419 25.5152 7.62011 27.8788 7.62011H35.1515V3.50279H32.9697H27.3939C21.7576 3.50279 19.5758 6.32961 19.5758 12.7207C19.5758 19.0503 21.7576 21.9385 27.3939 21.9385H35.2121V17.7598H27.8788ZM97.697 17.7598C96.8485 17.7598 96.303 17.1453 96.303 16.0391V7.68156H101.636V3.50279H96.303V0H91.8788V16.4078C91.8788 20.2179 93.6364 21.9385 97.2727 21.9385H102V17.7598H97.697ZM48.9091 12.4134L55.5758 3.50279H50.3636L46.303 8.97207L42.2424 3.50279H36.8485L43.6364 12.5978L36.6667 21.9385H41.8788L46.303 16.0391L50.7273 21.9385H56.1212L48.9091 12.4134Z" fill="#ED031F"/>
</svg>
