<?xml version="1.0" encoding="utf-8"?><svg width="107" height="35" viewBox="0 0 107 35" fill="none" xmlns="http://www.w3.org/2000/svg">
<path d="M46.2928 9.35898H53.3259L49.6243 3.3438L42.7762 14.1711H39.6298L47.9585 1.21535C48.6063 0.289938 49.8093 0.104856 50.7348 0.752644C50.9198 0.845185 51.1049 0.937727 51.1975 1.12281L59.5262 14.1711H56.3798L54.8991 11.765H47.7734L46.2928 9.35898ZM78.5897 11.765V0.475021H75.906V12.8755C75.906 13.2457 76.091 13.5233 76.2761 13.801C76.5537 14.0786 76.8314 14.1711 77.2015 14.1711H89.2319L90.8051 11.765H78.5897ZM35.0028 9.72914C37.5939 9.72914 39.6298 7.69323 39.6298 5.10208C39.6298 2.51093 37.5939 0.475021 35.0028 0.475021H23.4351V14.1711H26.1188V2.88109H34.8177C36.0207 2.97363 36.9461 3.99159 36.9461 5.19462C36.8536 6.30512 36.0207 7.23053 34.8177 7.32307H27.4144L35.2804 14.1711H39.0746L33.7997 9.72914H35.0028ZM7.24039 14.1711H15.1989C18.9931 14.1711 22.047 11.1173 22.047 7.32307C22.047 3.52888 18.9931 0.475021 15.1989 0.475021H7.24039C3.44621 0.475021 0.299805 3.52888 0.299805 7.32307C0.299805 11.1173 3.44621 14.1711 7.24039 14.1711ZM15.0139 11.765H7.33294C4.92686 11.6725 2.9835 9.6366 3.07604 7.13799C3.16858 4.82446 5.01941 2.97363 7.33294 2.88109H15.0139C17.4199 2.78855 19.5484 4.73192 19.6409 7.13799C19.7335 9.54406 17.7901 11.6725 15.384 11.765C15.1989 11.765 15.1064 11.765 15.0139 11.765ZM65.0786 14.1711H73.2223L74.7955 11.765H65.2637C62.8577 11.8576 60.7292 9.91422 60.6367 7.50815C60.5441 5.10208 62.4875 2.97363 64.8936 2.88109C64.9861 2.88109 65.0786 2.88109 65.1712 2.88109H72.9446L74.5178 0.475021H65.0786C61.2845 0.475021 58.2306 3.52888 58.2306 7.32307C58.2306 11.1173 61.2845 14.1711 65.0786 14.1711ZM97.3755 11.765C95.4322 11.765 93.6739 10.4695 93.1186 8.5261H104.409L105.982 6.12003H93.1186C93.6739 4.17667 95.4322 2.88109 97.3755 2.88109H105.149L106.722 0.475021H97.283C93.4888 0.475021 90.4349 3.52888 90.4349 7.32307C90.4349 11.1173 93.4888 14.1711 97.283 14.1711H105.427L107 11.765H97.3755Z" fill="#312D2A"/>
<path d="M0.299805 34.0681V21.0198H2.89096L8.53598 29.5336V21.0198H11.3122V34.0681H8.72106L3.07604 25.5543V34.0681H0.299805Z" fill="#312D2A"/>
<path d="M13.9033 34.0681V21.0198H22.4171V23.4258H16.7721V26.2946H21.9544V28.7007H16.7721V31.7546H22.6022V33.9755L13.9033 34.0681Z" fill="#312D2A"/>
<path d="M27.9697 34.0681V23.3333H24.083V21.0198H34.5402V23.4258H30.6534V34.0681H27.9697Z" fill="#312D2A"/>
<path d="M36.2986 33.4205V31.9398C37.5016 32.4951 38.7972 32.7727 40.0928 32.7727C40.9257 32.8652 41.7585 32.5876 42.4063 32.2175C42.9616 31.8473 43.2392 31.1995 43.2392 30.5517C43.2392 30.089 43.0541 29.6263 42.6839 29.2561C42.1287 28.7934 41.4809 28.4233 40.8331 28.2382L39.445 27.6829C38.5196 27.4053 37.6867 26.8501 36.9464 26.2023C36.4837 25.647 36.2061 24.9992 36.2061 24.2589C36.2061 23.241 36.6688 22.3155 37.4091 21.6678C38.427 21.02 39.5375 20.6498 40.7406 20.7423C41.3884 20.7423 41.9436 20.8349 42.5914 20.9274C43.1466 21.02 43.7019 21.205 44.1646 21.4827V22.9633C43.1466 22.5006 41.9436 22.223 40.8331 22.1305C38.8897 22.1305 37.8718 22.7782 37.8718 24.0738C37.8718 24.5365 38.0569 24.9067 38.427 25.1843C38.9823 25.647 39.6301 25.9246 40.2779 26.2023L41.666 26.7575C42.5914 27.0351 43.5168 27.5904 44.2571 28.3307C44.7198 28.886 44.9975 29.6263 44.9975 30.4592C45.09 31.4771 44.6273 32.4951 43.7944 33.1429C42.7765 33.8832 41.5734 34.1608 40.3704 34.1608C39.9077 34.1608 39.445 34.1608 38.9823 34.0683C38.5196 33.9757 38.0569 33.8832 37.5942 33.7907C36.9464 33.7907 36.5762 33.6056 36.2986 33.4205Z" fill="#312D2A"/>
<path d="M47.0332 28.1454V21.0198H48.6989V28.1454C48.6989 29.7186 48.9766 30.9217 49.5318 31.662C50.8274 33.0501 53.0484 33.2352 54.4365 31.9396C54.529 31.8471 54.6216 31.7546 54.7141 31.662C55.2694 30.9217 55.547 29.7186 55.547 28.1454V21.0198H57.2127V28.238C57.2127 30.3664 56.75 31.8471 55.9172 32.865C55.0843 33.883 53.7887 34.3457 52.123 34.3457C50.4572 34.3457 49.1617 33.883 48.3288 32.865C47.4959 31.8471 47.0332 30.2739 47.0332 28.1454Z" fill="#312D2A"/>
<path d="M59.9888 34.0681V21.0198H61.6545V34.0681H59.9888Z" fill="#312D2A"/>
<path d="M68.0401 34.0681V22.4079H63.9683V21.0198H73.8702V22.4079H69.7058V33.9755H68.0401V34.0681Z" fill="#312D2A"/>
<path d="M76.0913 34.0681V21.0198H84.1424V22.4079H77.757V26.6648H83.5871V28.0529H77.757V32.4949H84.3275V33.883H76.0913V34.0681Z" fill="#312D2A"/>
</svg>
