<?xml version="1.0" encoding="utf-8"?><svg width="92" height="29" viewBox="0 0 92 29" fill="none" xmlns="http://www.w3.org/2000/svg">
<path fill-rule="evenodd" clip-rule="evenodd" d="M80.699 3.87087C77.178 3.87087 73.9127 5.56731 73.9127 9.07737H87.3941C87.3941 5.59639 84.2195 3.87087 80.699 3.87087ZM68.2042 10.7777C68.2042 4.16381 72.901 0.153809 80.0762 0.153809C94.8378 0.153809 91.726 12.623 91.726 12.623H73.9047C73.9047 15.2299 76.6005 17.1356 80.5999 17.1356C83.6286 17.1356 85.6627 16.3678 87.4165 15.0846L90.7223 17.7844C90.7223 17.7844 87.0175 21.3426 80.5184 21.3426C75.3879 21.3426 68.2042 18.9874 68.2042 10.7777ZM13.7621 8.62307C14.3736 8.65439 14.9105 8.6819 15.3106 8.72373C20.4708 9.26276 22.9905 11.129 22.9905 14.2638C22.9905 18.9926 18.3347 21.3427 11.9663 21.3427C7.85392 21.3427 3.67977 20.1709 0.384766 17.5105L3.97714 14.5029C6.20304 16.1764 8.47825 17.2197 12.2751 17.2197C14.6048 17.2197 17.6144 16.3057 17.6144 14.663C17.6144 12.9313 15.7237 12.7777 13.6196 12.6067L13.4916 12.5963C13.1796 12.5708 12.8295 12.5476 12.4504 12.5224C8.50489 12.2604 1.41286 11.7896 1.41286 6.40227C1.41286 2.55355 6.35043 0.153956 11.8386 0.153956C17.8624 0.153956 21.542 2.32483 22.5301 2.99189L19.1921 5.78338C18.4307 5.342 15.8119 4.01353 11.8386 4.01353C9.35221 4.01353 6.65559 4.79559 6.65559 6.24906C6.65559 8.259 10.9801 8.48054 13.7621 8.62307ZM39.3322 13.5253C39.3322 17.2591 36.2944 17.2488 33.4184 17.239C33.2719 17.2385 33.1257 17.238 32.9805 17.238C29.9475 17.238 28.0106 16.5649 28.0106 14.8055C28.0106 13.1659 29.5883 12.6226 32.8477 12.6226H39.3322V13.5253ZM33.7256 0.153809C28.1689 0.153809 24.5669 2.51164 23.8968 2.98728L27.265 5.79472C27.9356 5.35119 30.2214 4.03709 33.7677 4.03709C38.0237 4.03709 39.2942 5.45144 39.2942 7.0511V9.04308L31.7079 9.04699C28.9031 9.04699 23.3855 9.6359 23.3855 14.7812C23.3855 18.5608 25.9862 21.3426 32.1948 21.3426C35.3115 21.3426 37.6681 20.5007 39.2942 18.8771V20.9286H44.8014V7.35532C44.8014 2.60842 41.3092 0.153809 33.7256 0.153809ZM61.8878 13.6616C62.0449 13.0834 62.077 11.9478 62.077 10.4141C62.077 8.88043 62.0316 7.59037 61.899 7.00846C61.7083 6.16735 60.4054 3.99117 56.3489 3.99117C53.0362 3.99117 51.1284 5.68053 50.8329 6.82921C50.6844 7.4086 50.5652 8.13358 50.5652 10.4141C50.5652 11.9478 50.6389 12.7245 50.7362 13.3111C51.2171 16.2396 55.511 16.6183 56.3489 16.6183C59.6963 16.6183 61.5405 14.939 61.8878 13.6616ZM62.077 2.78442V0.576254H67.8051V18.9728C67.8051 21.7798 66.3719 24.4255 64.0991 25.833C61.7248 27.3027 59.0149 28.1059 55.6478 28.084C52.4703 28.0634 49.5258 26.9926 47.0633 25.4202L50.8618 22.4298C51.8819 22.9882 53.6721 23.7902 55.5398 23.7902C57.5988 23.7902 59.0823 23.3269 60.2649 22.5708C61.4448 21.8168 62.077 20.8629 62.077 19.4104V18.1742C60.3023 19.7748 57.7383 20.6971 54.7169 20.6971C51.5987 20.6971 47.8655 19.3364 46.328 16.9002C45.2283 15.1591 45.1994 12.8949 45.1994 10.4053C45.1994 7.76288 45.3191 5.97506 45.6659 5.03886C46.6 2.51976 49.3591 0.153809 54.7169 0.153809C57.8543 0.153809 60.1521 1.02353 62.077 2.78442Z" fill="#00DC00"/>
</svg>
