<?xml version="1.0" encoding="utf-8"?><svg width="96" height="96" viewBox="0 0 96 96" fill="none" xmlns="http://www.w3.org/2000/svg">
<path d="M0 24.2532V71.7471H48.5144L95.9993 24.2588H0V24.2532Z" fill="url(#paint0_linear)"/>
<path d="M58.5603 46.3561H56.5353V38.9581H58.5603C61.2633 38.9581 63.4158 39.8476 63.4158 42.6121C63.4158 45.4666 61.2633 46.3591 58.5603 46.3591V46.3561ZM36.7653 51.6541C35.7603 51.6586 34.7628 51.4831 33.8208 51.1351L36.7368 41.9401H36.7968L39.6543 51.1651C38.7273 51.4951 37.7493 51.6601 36.7683 51.6601L36.7653 51.6541ZM58.0233 32.9461H48.8253V54.8161L40.7913 32.9461H32.8353L25.9743 51.2251C25.2483 46.6231 20.4783 45.0256 16.7253 43.8331C14.2533 43.0381 11.6193 41.8831 11.6433 40.5736C11.6643 39.5146 13.0578 38.5336 15.8043 38.6776C17.6553 38.7706 19.3038 38.9176 22.5318 40.4881L25.7388 34.9231C22.7793 33.4126 18.6798 32.4631 15.3228 32.4556H15.2928C11.3778 32.4556 8.11975 33.7306 6.09775 35.8201C4.69975 37.2601 3.91075 39.1801 3.89575 41.1856C3.84325 44.0026 4.88125 46.0006 7.05325 47.6011C8.89075 48.9481 11.2353 49.8136 13.3053 50.4661C15.8598 51.2506 17.9448 51.9421 17.9208 53.4106C17.9058 53.9463 17.6894 54.4568 17.3148 54.8401C16.6788 55.4956 15.7023 55.7476 14.3493 55.7791C11.7423 55.8316 9.81175 55.4266 6.73225 53.6071L3.88525 59.2411C7.05625 61.0411 10.6398 61.9951 14.2863 62.0086H14.7663C17.9913 61.9486 20.5983 61.0261 22.6803 59.3536L23.0178 59.0626L22.1073 61.5226H30.4548L31.8573 57.2566C35.0073 58.2766 38.3973 58.2916 41.5578 57.2971L42.9078 61.5271H56.5278V52.7101H59.5023C66.6813 52.7101 70.9323 49.0561 70.9323 42.9241C70.9323 36.0991 66.7998 32.9641 58.0143 32.9641" fill="white"/>
<defs>
<linearGradient id="paint0_linear" x1="47.5176" y1="24.4046" x2="47.5176" y2="72.3381" gradientUnits="userSpaceOnUse">
<stop stop-color="#00B8F1"/>
<stop offset="0.22" stop-color="#06A5E5"/>
<stop offset="0.79" stop-color="#1870C5"/>
<stop offset="1" stop-color="#1D61BC"/>
</linearGradient>
</defs>
</svg>
