<?xml version="1.0" encoding="utf-8"?><svg width="127" height="25" viewBox="0 0 127 25" fill="none" xmlns="http://www.w3.org/2000/svg">
<path fill-rule="evenodd" clip-rule="evenodd" d="M96.4119 15.8437C94.2814 15.8437 93.2922 14.0176 93.2922 12.3436C93.2922 10.6696 94.2814 8.91958 96.4119 8.91958C98.5424 8.91958 99.5316 10.6696 99.5316 12.3436C99.5316 14.0176 98.5424 15.8437 96.4119 15.8437ZM96.4119 6.18035C92.6835 6.18035 89.9443 8.7674 89.9443 12.3436C89.9443 16.072 92.6835 18.6591 96.4119 18.6591C100.064 18.6591 102.88 16.072 102.88 12.3436C102.803 8.7674 100.14 6.18035 96.4119 6.18035ZM59.9649 6.48471H55.7039L51.4429 11.3544H51.3668V0.0170898H48.0949V18.2786H51.3668V12.4958H51.4429L55.8561 18.2786H60.1932L55.0952 11.811L59.9649 6.48471ZM67.5739 15.8437C65.5956 15.8437 64.4542 14.0937 64.4542 12.4197C64.4542 10.7457 65.6717 8.91958 67.5739 8.91958C69.7044 8.91958 70.7697 10.6696 70.7697 12.3436C70.6936 14.0937 69.5522 15.8437 67.5739 15.8437ZM68.1826 6.18035C66.6608 6.18035 65.5956 6.86516 64.5303 7.77824H64.4542V0.0170898H61.1824V18.2786H64.302V16.6046H64.3781C65.139 17.8221 66.5847 18.583 68.1065 18.583C71.4545 18.583 74.0415 15.9198 74.0415 12.3436C74.0415 8.7674 71.5306 6.18035 68.1826 6.18035ZM116.728 6.48471H112.467L108.206 11.3544H108.13V0.0170898H104.858V18.2786H108.13V12.4958H108.206L112.695 18.2786H117.032L111.934 11.811L116.728 6.48471ZM122.967 11.0501C121.293 10.6696 120.684 10.4414 120.684 9.75657C120.684 8.84349 121.902 8.61522 122.435 8.61522C123.424 8.61522 124.565 9.22394 125.022 9.75657L126.924 7.93041C126.011 6.78907 124.261 6.18035 122.435 6.18035C120.076 6.18035 117.565 7.39779 117.565 9.98484C117.565 12.2675 119.391 12.9523 121.141 13.3328C122.967 13.7893 123.652 14.0937 123.652 14.7785C123.652 15.8437 122.435 16.072 121.978 16.072C120.913 16.072 119.695 15.4633 119.011 14.7024L117.032 16.6807C118.097 17.8982 120 18.583 121.902 18.583C125.098 18.583 127 17.0612 127 14.5502C126.924 12.2675 124.565 11.4305 122.967 11.0501ZM82.0309 15.8437C79.9004 15.8437 78.9113 14.0176 78.9113 12.3436C78.9113 10.6696 79.9004 8.91958 82.0309 8.91958C84.1614 8.91958 85.1506 10.6696 85.1506 12.3436C85.0745 14.0176 84.1614 15.8437 82.0309 15.8437ZM82.0309 6.18035C78.3025 6.18035 75.5633 8.7674 75.5633 12.3436C75.5633 16.072 78.3025 18.6591 82.0309 18.6591C85.6832 18.6591 88.4986 16.072 88.4986 12.3436C88.4225 8.7674 85.7593 6.18035 82.0309 6.18035ZM7.38697 15.8437C5.33255 15.8437 4.19121 14.0937 4.19121 12.3436C4.19121 10.6696 5.25646 8.91958 7.38697 8.91958C9.3653 8.91958 10.5066 10.7457 10.5066 12.4197C10.5827 14.0937 9.3653 15.8437 7.38697 15.8437ZM10.5827 8.0065C10.0501 7.47388 8.75659 6.18035 6.77826 6.18035C3.43031 6.18035 0.843262 8.7674 0.843262 12.3436C0.843262 15.9959 3.20204 18.583 6.62608 18.583C8.14787 18.583 9.59357 17.746 10.4306 16.8329H10.5066V24.0614H13.7785V6.48471H10.6588V8.0065H10.5827ZM24.355 12.9523C24.355 14.3219 23.4419 15.8437 21.7679 15.8437C20.4744 15.8437 19.7896 14.9307 19.7896 13.0284V6.48471H16.5177V13.7893C16.5177 16.2242 17.7352 18.583 21.007 18.583C22.5288 18.583 23.8223 17.3655 24.5071 16.4525H24.5832V18.2786H27.7029V6.48471H24.4311V12.9523H24.355ZM30.29 18.2786H33.5618V6.48471H30.29V18.2786ZM42.16 15.8437C40.1816 15.8437 39.1925 14.0937 39.1925 12.3436C39.1925 10.6696 40.2577 8.91958 42.0839 8.91958C42.9208 8.91958 43.9861 9.37612 44.4426 9.90875L46.5732 7.85433C45.584 6.78907 43.91 6.18035 42.0839 6.18035C38.4316 6.18035 35.7684 8.7674 35.7684 12.4197C35.7684 16.072 38.4316 18.6591 42.16 18.6591C43.9861 18.6591 45.584 18.1264 46.5732 17.0612L44.5187 14.8546C43.9861 15.4633 42.9969 15.8437 42.16 15.8437Z" fill="#151719"/>
</svg>
