<?xml version="1.0" encoding="utf-8"?><svg width="55" height="54" viewBox="0 0 55 54" fill="none" xmlns="http://www.w3.org/2000/svg">
<path fill-rule="evenodd" clip-rule="evenodd" d="M52.3422 45.5076H32.6675L32.6353 41.9022H37.3742V37.7043H32.5982L32.5761 35.2221H37.3742V31.0242H32.5387L32.5168 28.5419H37.3742V24.344H32.5009V21.8618H37.3742V17.6639H32.5009V15.1816H37.3742V10.9837H32.5009V7.16955H52.3422V45.5076ZM52.0371 5.19406H32.7328V0.637695L0.998535 5.5426V48.5282L32.7328 54V47.2503H52.0371C53.3205 47.2503 54.3608 46.314 54.3608 45.1591V7.28526C54.3608 6.13022 53.3205 5.19406 52.0371 5.19406ZM8.68665 17.0833L12.9238 16.8521L15.5872 23.8447L18.7348 16.5632L22.9719 16.332L17.8269 26.2597L22.9719 36.212L18.4926 35.9231L15.4662 28.3367L12.4396 35.6341L8.32348 35.2873L13.1054 26.4964L8.68665 17.0833ZM48.081 15.2858H39.7104V11.1005H48.081V15.2858ZM48.081 21.5643H39.7104V17.379H48.081V21.5643ZM39.7104 28.8883H48.081V24.7031H39.7104V28.8883ZM48.081 35.1652H39.7104V30.98H48.081V35.1652ZM39.7104 41.4445H48.081V37.2592H39.7104V41.4445Z" fill="#007233"/>
</svg>
