<svg width="768" height="1370" viewBox="0 0 768 1370" fill="none" xmlns="http://www.w3.org/2000/svg"><circle cx="384" cy="384" r="383.5" transform="rotate(-90 384 384)" stroke="#363F45" stroke-dasharray="3.55 3.55"/><circle cx="384" cy="985.791" r="383.5" transform="rotate(-90 384 985.791)" stroke="#363F45" stroke-dasharray="3.55 3.55"/><path d="M375.929 601.791c-143.2 7.425-226.914 81.672-226.914 81.672S240.388 765.135 384 765.135c146.971 0 234.985-81.672 234.985-81.672s-94.728-81.672-243.056-81.672z" fill="#EAEEE7"/><path d="M387.461 639.139a24.715 24.715 0 00-12.108 1.995 24.526 24.526 0 00-9.62 7.565c-.079.101-.263.114-.466.193-.264-2.385-.576-4.688-.756-6.999-.088-1.057-.44-1.386-1.495-1.368-3.918.07-7.841.105-11.755-.013-1.446-.044-1.653.465-1.649 1.784.053 11.025.031 22.054.031 33.079 0 18.378-.009 36.756-.026 55.131-.005 1.276.277 1.697 1.596 1.671 4.027-.106 8.055-.106 12.084 0 1.579.044 2.098-.272 2.076-2.043-.097-10.021-.044-20.046-.044-30.07v-1.803a22.09 22.09 0 007.15 5.5 31.93 31.93 0 0015.391 2.96 29.863 29.863 0 0020.699-8.464c10.22-10.182 12.77-28.991 5.743-42.248a30.028 30.028 0 00-11.006-12.228 30.338 30.338 0 00-15.845-4.642zm-3.091 52.9a17.789 17.789 0 01-6.945-1.166 17.684 17.684 0 01-5.934-3.765 17.535 17.535 0 01-3.981-5.767 17.433 17.433 0 01-1.394-6.852 17.064 17.064 0 01.921-7.017 17.165 17.165 0 013.692-6.055 17.335 17.335 0 015.838-4.065 17.452 17.452 0 016.994-1.386c2.425-.17 4.859.17 7.142.997a17.302 17.302 0 016.113 3.801 17.149 17.149 0 014.018 5.944 17.045 17.045 0 011.227 7.053 17.445 17.445 0 01-1.13 6.942 17.541 17.541 0 01-3.785 5.944 17.671 17.671 0 01-5.833 3.992 17.79 17.79 0 01-6.943 1.4z" fill="#020303"/><path d="M372.959 668.259c6.977 1.902 13.632 3.686 20.263 5.538 1.934.541 2.151 1.319 1.036 2.957a9.67 9.67 0 01-6.103 3.83 9.788 9.788 0 01-7.095-1.419 20.915 20.915 0 01-8.101-10.906" fill="#AB0C0C"/></svg>