<svg width="93" height="36" viewBox="0 0 93 36" fill="none" xmlns="http://www.w3.org/2000/svg">
<path fill-rule="evenodd" clip-rule="evenodd" d="M9.78293 18.8541C9.78293 17.3827 8.6958 16.4422 7.17409 16.4422H3.26091V21.2174H7.17409C8.76826 21.2174 9.78293 20.2767 9.78293 18.8541ZM3.26091 9.15914V13.9824H6.9567C8.74417 13.9824 9.56555 12.8248 9.56555 11.5949C9.54126 10.389 8.74417 9.15914 6.9567 9.15914H3.26091ZM13.0197 19.3845C13.0197 22.3511 10.7249 24.0143 7.29483 24.0143H0V6.36163H7.27074C10.749 6.36163 12.8265 8.31514 12.8265 11.1608C12.8265 13.2347 11.7394 14.5611 10.4109 15.2124C11.8119 15.8875 13.0197 17.214 13.0197 19.3845ZM27.2599 12.0531L21.6115 26.5774C20.1723 30.1937 17.2707 29.8261 14.8686 29.8261L14.8851 27.1466C16.5223 27.1466 18.1918 27.393 18.9264 25.7269L19.3129 24.7144L14.1919 12.0531H17.5255L20.7864 20.687L23.9748 12.0531H27.2599ZM50.2558 6.33758V24.0143H47.0193V13.6929L42.9369 24.0143H39.7967L35.7628 13.7653V24.0143H32.5984V6.33758H35.7628L41.3667 20.1798L47.0193 6.33758H50.2558ZM52.9523 24.0143H56.116V12.0531H52.9523V24.0143ZM58.861 24.0143H62.0256V6H58.861V24.0143ZM67.0903 16.9728H72.864C72.7435 15.1641 71.6323 14.2958 70.0859 14.2958C68.4433 14.2958 67.3807 15.2364 67.0903 16.9728ZM76.0762 19.1431H67.0427C67.236 20.9275 68.6366 21.6509 70.0859 21.6509C71.5351 21.6509 72.4531 20.9759 72.9844 19.9393L75.5934 20.9759C74.7241 23.0745 72.5978 24.3285 70.0859 24.3285C66.5346 24.3285 64.0713 21.8206 64.0713 18.0337C64.0713 14.2718 66.487 11.6913 70.1345 11.6913C73.709 11.6913 76.0762 14.1995 76.0762 18.0337V19.1431ZM82.2676 21.8206C83.2341 21.8206 83.983 21.4579 83.983 20.6142C83.983 19.9877 83.5721 19.6493 82.8232 19.4563L81.2292 19.0228C78.6444 18.3479 77.7508 17.0693 77.7508 15.5018C77.7508 13.3554 79.3934 11.6913 82.2919 11.6913C84.659 11.6913 86.5192 12.8248 86.8815 14.8506L84.0558 15.5018C83.9587 14.6817 83.2826 14.2235 82.389 14.2235C81.4711 14.2235 80.8426 14.6817 80.8426 15.4535C80.8426 16.0323 81.2292 16.394 82.1957 16.6593L83.7654 17.0693C85.9636 17.648 87.1476 18.8541 87.1476 20.6142C87.1476 22.8088 85.4079 24.3285 82.3161 24.3285C79.3205 24.3285 77.7022 22.8816 77.4128 20.9275L80.3113 20.4455C80.3598 21.2892 81.1088 21.8206 82.2676 21.8206ZM88.966 22.4229C88.966 21.3377 89.8606 20.4212 90.9951 20.4212C92.0578 20.4212 93 21.3377 93 22.4229C93 23.508 92.0578 24.4002 90.9951 24.4002C89.8606 24.4002 88.966 23.508 88.966 22.4229ZM52.5171 8.33929C52.5171 7.25402 53.4108 6.33758 54.5463 6.33758C55.6089 6.33758 56.5511 7.25402 56.5511 8.33929C56.5511 9.42447 55.6089 10.3169 54.5463 10.3169C53.4108 10.3169 52.5171 9.42447 52.5171 8.33929Z" fill="white"/>
<path fill-rule="evenodd" clip-rule="evenodd" d="M32.6291 29.8422C31.888 29.8422 31.2871 29.2419 31.2871 28.502C31.2871 27.762 31.888 27.1627 32.6291 27.1627H87.1784C87.9195 27.1627 88.5198 27.762 88.5198 28.502C88.5198 29.2419 87.9195 29.8422 87.1784 29.8422H32.6291Z" fill="white"/>
</svg>
