<svg width="101" height="36" viewBox="0 0 101 36" fill="none" xmlns="http://www.w3.org/2000/svg">
<path d="M37.8037 15.6079C37.8037 10.7301 33.8584 7 28.9088 7C22.8832 7 19.4401 11.304 19.4401 16.9709C19.4401 22.566 22.5963 26.9417 29.0523 26.9417C33.9301 26.9417 37.1581 24.0007 37.6602 20.701H33.141C32.6389 22.0639 31.3477 23.2116 29.0523 23.2116C25.3222 23.2116 24.1027 20.9879 23.8875 18.2621H37.5885C37.7319 17.473 37.8037 16.5405 37.8037 15.6079ZM23.8875 15.1058C23.8875 12.0213 26.3264 10.4432 28.7653 10.4432C31.276 10.4432 33.428 12.2365 33.428 15.1058H23.8875Z" fill="white"/>
<path d="M74.6735 7.57374C74.0997 7.35854 73.5258 7.2868 72.8802 7.2868C70.2978 7.2868 67.7872 8.86493 66.9264 10.5865V7.502H62.4072V26.5112H66.9264V18.3337C66.9264 13.5993 69.0066 11.4473 72.8802 11.4473C73.4541 11.4473 74.0997 11.519 74.6735 11.6625V7.57374Z" fill="white"/>
<path d="M90.4552 9.94085C89.0205 8.07579 86.7251 7.07153 84.5013 7.07153C78.6193 7.07153 74.674 11.6624 74.674 17.0424C74.674 22.4224 78.691 27.0133 84.5013 27.0133C86.7251 27.0133 89.0922 26.0807 90.4552 24.1439V26.5111H94.9743V7.50193H90.4552V9.94085V9.94085ZM84.7883 23.068C81.4168 23.068 79.1931 20.2704 79.1931 17.0424C79.1931 13.7427 81.4168 11.0168 84.7883 11.0168C88.2315 11.0168 90.4552 13.8144 90.4552 17.0424C90.4552 20.2704 88.2315 23.068 84.7883 23.068Z" fill="white"/>
<path d="M50.141 22.9965C46.913 22.9965 44.761 20.3424 44.761 17.1862H40.457C40.3853 22.3509 44.4741 26.6549 49.7106 26.7984C49.8541 26.7984 49.9975 26.7984 50.141 26.7984C56.0948 26.7984 59.8966 22.3509 59.8966 17.1862H55.5927C55.5927 20.3424 53.4407 22.9965 50.141 22.9965Z" fill="white"/>
<path d="M13.2706 15.1157H4.51917V7.08167H0V26.593H4.51917V18.9893H13.2706V26.593H17.7897V7.08167H13.2706V15.1157Z" fill="white"/>
<path d="M44.4023 13.4559C46.0662 13.4559 47.4151 12.1071 47.4151 10.4431C47.4151 8.77923 46.0662 7.43036 44.4023 7.43036C42.7384 7.43036 41.3895 8.77923 41.3895 10.4431C41.3895 12.1071 42.7384 13.4559 44.4023 13.4559Z" fill="white"/>
<path d="M55.8801 13.4559C57.544 13.4559 58.8929 12.1071 58.8929 10.4431C58.8929 8.77923 57.544 7.43036 55.8801 7.43036C54.2162 7.43036 52.8673 8.77923 52.8673 10.4431C52.8673 12.1071 54.2162 13.4559 55.8801 13.4559Z" fill="white"/>
<path d="M99.9233 8.79335C99.9233 8.36295 99.5647 8.00429 99.1343 8.07602H98.13V10.0845H98.7756V9.58241H98.9191L99.2777 10.0845H99.9951L99.6364 9.43894C99.7799 9.29548 99.9233 9.08028 99.9233 8.79335ZM99.0625 9.08028H98.7756V8.50642H99.0625C99.206 8.50642 99.2777 8.64988 99.2777 8.79335C99.2777 8.93681 99.206 9.08028 99.0625 9.08028Z" fill="white"/>
<path d="M98.9914 11.0886C97.8437 11.0886 96.9829 10.156 96.9829 9.08005C96.9829 8.00406 97.9154 7.07153 98.9914 7.07153C100.139 7.07153 101 8.00406 101 9.08005C101 10.156 100.139 11.0886 98.9914 11.0886ZM98.9914 7.57366C98.1306 7.57366 97.485 8.21926 97.485 9.08005C97.485 9.94085 98.1306 10.5864 98.9914 10.5864C99.8522 10.5864 100.498 9.94085 100.498 9.08005C100.498 8.21926 99.7805 7.57366 98.9914 7.57366Z" fill="white"/>
</svg>
