<svg width="100" height="36" viewBox="0 0 100 36" fill="none" xmlns="http://www.w3.org/2000/svg">
<g clip-path="url(#clip0_771_9798)">
<path d="M15.1765 26.3321C13.3657 26.3321 11.5868 26.3321 9.78742 26.3321C9.78742 26.2484 9.78742 26.1749 9.78742 26.1015C9.78742 23.427 9.7897 20.7514 9.78628 18.0769C9.78515 17.4394 9.72941 16.8087 9.43482 16.2265C9.11407 15.5935 8.58632 15.2702 7.87998 15.2205C6.61518 15.1323 5.68023 15.9349 5.46526 17.2009C5.40498 17.5581 5.3845 17.9243 5.38337 18.2872C5.37654 20.8871 5.37995 23.4858 5.37995 26.0856C5.37995 26.1603 5.37995 26.2349 5.37995 26.3264C3.58512 26.3264 1.80166 26.3264 0 26.3264C0 18.5574 0 10.7838 0 3C1.78801 3 3.56692 3 5.37199 3C5.37199 6.18427 5.37199 9.36853 5.37199 12.6037C5.53009 12.3979 5.64156 12.2261 5.77805 12.0769C6.51054 11.28 7.43412 10.8132 8.48167 10.5848C9.64297 10.3316 10.7997 10.3847 11.9132 10.7996C13.3487 11.3354 14.2176 12.4183 14.709 13.8279C15.0752 14.8791 15.1753 15.9688 15.1765 17.072C15.1765 20.0924 15.1765 23.1128 15.1765 26.132C15.1765 26.1942 15.1765 26.2552 15.1765 26.3321Z" fill="white"/>
<path d="M80.4069 12.8286C80.4433 12.2013 80.4751 11.6327 80.5081 11.0528C82.2051 11.0528 83.8896 11.0528 85.5889 11.0528C85.5889 16.1406 85.5889 21.2284 85.5889 26.3298C83.9022 26.3298 82.2176 26.3298 80.5093 26.3298C80.4763 25.759 80.4433 25.187 80.4069 24.5574C80.3284 24.6557 80.2772 24.7202 80.2272 24.7857C79.5766 25.6425 78.7406 26.2484 77.7135 26.5785C76.9844 26.8136 76.2269 26.8622 75.466 26.8249C74.6266 26.7842 73.8144 26.6056 73.0512 26.2507C71.5612 25.5566 70.4932 24.4511 69.8016 22.9681C69.2705 21.8298 69.0032 20.6361 68.9293 19.3904C68.853 18.1052 68.9691 16.8437 69.391 15.6218C69.9495 14.0053 70.8879 12.6444 72.3005 11.6575C73.3515 10.9228 74.5538 10.5758 75.8447 10.5509C76.973 10.5294 78.0217 10.7894 78.9692 11.4123C79.4594 11.7344 79.87 12.1402 80.2283 12.5991C80.2749 12.6613 80.325 12.7235 80.4069 12.8286ZM80.4023 18.4488C80.3853 17.8294 80.2363 17.2484 79.9292 16.7047C78.7883 14.6858 76.0517 14.5468 74.7187 16.4402C74.3024 17.0313 74.125 17.696 74.1045 18.4048C74.0613 19.8968 74.5924 21.0837 76.0017 21.7586C77.0219 22.248 78.032 22.1926 78.9919 21.5845C79.4094 21.32 79.6482 20.895 79.8859 20.4812C80.2465 19.8528 80.4308 19.1768 80.4023 18.4488Z" fill="white"/>
<path d="M32.4959 33.0974C32.9952 31.6742 33.4911 30.2613 33.9916 28.8347C34.5739 29.0472 35.1665 29.0371 35.7602 29.0235C36.6588 29.002 37.3401 28.5906 37.7769 27.8276C38.1226 27.2251 38.3774 26.5706 38.7243 25.9681C38.9768 25.5295 38.9291 25.1621 38.7403 24.7111C36.8396 20.1953 34.9629 15.6681 33.0794 11.1455C33.0555 11.089 33.0373 11.0302 33.0077 10.9511C33.0862 10.9465 33.1453 10.9409 33.2056 10.9409C34.9686 10.9409 36.7316 10.9431 38.4946 10.9364C38.6515 10.9352 38.7084 10.9906 38.7573 11.1297C39.773 14.0098 40.7944 16.8889 41.8147 19.768C41.834 19.8234 41.8568 19.8788 41.8943 19.976C41.9318 19.8652 41.9557 19.7962 41.9773 19.7262C42.8634 16.8629 43.7506 13.9997 44.6355 11.1353C44.673 11.0132 44.7083 10.9352 44.8709 10.9364C46.6532 10.9431 48.4344 10.9409 50.2167 10.9409C50.2611 10.9409 50.3043 10.9409 50.3782 10.9409C50.3509 11.02 50.3339 11.0822 50.3089 11.1421C48.1751 16.3961 46.0447 21.6523 43.9018 26.9029C43.3274 28.3091 42.6928 29.6915 41.8545 30.9677C41.2392 31.9048 40.4953 32.7119 39.4864 33.2488C38.7289 33.6512 37.9065 33.7982 37.0649 33.8649C35.5999 33.9813 34.1827 33.7632 32.8132 33.2375C32.7427 33.2104 32.6733 33.181 32.6039 33.1505C32.5732 33.1381 32.5471 33.1222 32.4959 33.0974Z" fill="white"/>
<path d="M32.4787 20.0822C29.1165 20.0822 25.7634 20.0822 22.3921 20.0822C22.6492 20.965 23.0689 21.6749 23.9515 22.0626C24.9547 22.5035 25.992 22.6968 27.0817 22.664C28.5842 22.6188 30.0378 22.3362 31.4414 21.8004C31.4527 21.7959 31.4653 21.7993 31.4937 21.797C31.9214 23.0088 32.3502 24.2239 32.7892 25.4662C32.4036 25.6211 32.0396 25.7759 31.67 25.915C30.2835 26.4361 28.8447 26.7062 27.3672 26.7944C26.3628 26.8543 25.3596 26.8611 24.3587 26.7367C23.2759 26.6034 22.267 26.2371 21.2934 25.7578C19.0015 24.6275 17.6855 22.7714 17.2306 20.306C16.9576 18.8252 16.9815 17.323 17.4933 15.8964C18.5773 12.8704 20.7258 11.0742 23.9561 10.63C25.3323 10.4412 26.7018 10.5215 28.0166 10.9725C30.2914 11.7525 31.7382 13.3293 32.374 15.633C32.7471 16.9861 32.7755 18.5573 32.4787 20.0822ZM27.6868 16.7951C27.589 16.0524 27.3239 15.4002 26.8303 14.852C26.4447 14.4235 25.9306 14.2755 25.3756 14.2257C23.7684 14.0833 22.6287 15.0419 22.3057 16.7951C24.0903 16.7951 25.8737 16.7951 27.6868 16.7951Z" fill="white"/>
<path d="M68.008 25.69C67.4518 25.872 66.9206 26.0698 66.3769 26.2179C65.1008 26.5661 63.7939 26.6972 62.4756 26.6282C60.9299 26.5468 59.4615 26.1456 58.1079 25.3905C56.8511 24.6896 55.9628 23.6339 55.3292 22.3622C54.6525 21.0012 54.4432 19.5487 54.5103 18.0453C54.5569 17.002 54.7355 15.9846 55.1825 15.034C56.0413 13.2062 57.4392 11.9334 59.3045 11.1568C60.7308 10.5633 62.2186 10.3757 63.7529 10.465C65.0018 10.5373 66.2211 10.7476 67.3926 11.193C67.6224 11.28 67.8431 11.3896 68.0717 11.4801C68.1729 11.5208 68.182 11.5705 68.1468 11.6677C67.677 12.9654 67.2084 14.2631 66.7477 15.563C66.6954 15.7099 66.6215 15.6772 66.518 15.6489C65.4738 15.355 64.4126 15.173 63.323 15.225C62.5814 15.26 61.8785 15.4364 61.2461 15.8467C60.6012 16.2649 60.1917 16.8426 60.0108 17.5841C59.8357 18.3008 59.8436 19.0185 60.0336 19.7262C60.2918 20.687 60.9538 21.2895 61.8614 21.6433C62.7725 21.9971 63.7199 22.04 64.6776 21.9123C65.3146 21.8275 65.947 21.71 66.6033 21.6037C67.0628 22.9353 67.5246 24.2804 68.008 25.69Z" fill="white"/>
<path d="M94.0002 26.3332C92.1918 26.3332 90.4117 26.3332 88.6214 26.3332C88.6214 21.2036 88.6214 16.083 88.6214 10.9511C90.3435 10.9511 92.0587 10.9511 93.8001 10.9511C93.8342 11.687 93.8672 12.4206 93.9013 13.1553C93.9172 13.1632 93.9331 13.1711 93.9491 13.1791C94.5144 11.887 95.5232 11.1252 96.8529 10.7623C97.7389 10.5204 99.0242 10.6877 99.9989 11.1523C99.5701 12.7269 99.1402 14.3072 98.7103 15.8852C97.8959 15.6455 97.0883 15.6455 96.2796 15.788C95.4027 15.9417 94.8351 16.4786 94.4745 17.2665C94.0935 18.0973 94.0014 18.979 94.0002 19.8754C93.9968 21.9417 93.9991 24.0069 93.9991 26.0732C94.0002 26.1524 94.0002 26.2337 94.0002 26.3332Z" fill="white"/>
<path d="M100 29.5989H55.1883V33.8943H100V29.5989Z" fill="white"/>
</g>
<defs>
<clipPath id="clip0_771_9798">
<rect width="100" height="30.8943" fill="white" transform="translate(0 3)"/>
</clipPath>
</defs>
</svg>
