<svg width="123" height="36" viewBox="0 0 123 36" fill="none" xmlns="http://www.w3.org/2000/svg">
<path d="M38.9147 24.4814C38.1155 24.5344 36.3437 24.6357 35.2026 24.6405C34.0518 24.6405 32.9926 24.6019 32.5544 24.5585C30.5996 24.3561 29.9448 23.5705 29.9448 21.58V10.0849C29.9448 9.03425 29.7522 8.68241 28.5389 8.68241H24.5042V22.6307C24.5042 26.6551 25.5249 28.3083 32.6074 28.3083C38.077 28.3083 40.1618 28.0336 40.1618 28.0336C40.1618 28.0336 40.1762 26.1394 40.1762 25.4165C40.1714 24.4525 40.0655 24.4043 38.9147 24.4814ZM78.314 12.4562H73.3163C72.8781 12.4562 72.5507 12.6057 72.3052 12.9816L69.7678 16.7506H69.6667L67.2159 12.9816C66.9752 12.6105 66.6622 12.4562 66.2241 12.4562H60.7112L66.1952 20.0859L60.0805 27.9468H65.0974C65.5693 27.9468 65.9112 27.7299 66.1134 27.4166L69.1563 22.8716H69.2815L72.1318 27.2431C72.4303 27.7685 72.7722 27.9468 73.2585 27.9468H78.9207L72.7192 19.7678L78.314 12.4562ZM56.869 12.4562H52.7331V24.8959C51.9676 25.1707 50.6483 25.2574 49.7624 25.2574C47.745 25.2574 46.8591 24.4959 46.8591 23.2235V13.2804C46.8591 12.8225 46.498 12.4562 46.0502 12.4562H41.9144V22.9054C41.9144 26.6551 44.5673 28.3035 49.8635 28.3035C53.0605 28.3035 56.1468 27.7829 57.6875 27.0889V13.2804C57.6827 12.8177 57.3216 12.4562 56.869 12.4562ZM104.376 7.49194H100.544V10.8513H105.498V8.65831C105.498 7.61726 105.325 7.49194 104.376 7.49194ZM122.658 12.3695C121.474 12.2104 119.846 12.0996 117.968 12.0996C115.234 12.114 112.273 12.355 110.443 13.0202V27.942H115.393V17.4109C115.393 16.3843 115.975 15.6469 116.981 15.4975C117.68 15.3915 118.705 15.3433 119.379 15.3529C120.766 15.3674 122.075 15.4927 122.764 15.6903C122.764 15.6903 122.884 15.7192 122.952 15.6614L123 15.5119V12.7599C123 12.5093 122.928 12.4081 122.658 12.3695ZM104.376 12.4562H100.544V27.9468H105.498V13.6997C105.498 12.7069 105.253 12.4562 104.376 12.4562ZM88.2806 12.1092C86.2198 12.1092 83.668 12.4418 81.8143 13.0491C81.7469 13.0684 81.7228 13.1214 81.7228 13.1985V15.7819C81.7228 16.1626 81.8577 16.3409 82.0936 16.3409C82.2428 16.3458 82.4306 16.2542 82.6714 16.153C84.1736 15.4975 85.8443 15.189 87.8761 15.189C90.3557 15.189 90.6542 15.5891 90.6542 16.4277C90.6542 17.1266 90.6061 17.1458 89.6046 17.4157C87.332 18.0664 84.6647 18.6592 82.5221 19.8497C81.0247 20.6787 80.4855 22.1583 80.4855 23.7344C80.4855 27.1516 82.5751 28.3035 87.2069 28.3035C91.102 28.3035 93.9235 27.8022 95.599 27.1275V16.7651C95.6038 12.8804 91.7761 12.1092 88.2806 12.1092ZM90.6542 23.2476C90.6542 24.5393 90.3894 25.5273 88.0928 25.5273C86.2102 25.5273 85.5313 24.7899 85.5313 23.2379C85.5313 22.221 86.1235 21.6233 87.6643 21.0161C88.6561 20.616 89.6335 20.2786 90.6494 19.9123L90.6542 23.2476Z" fill="white"/>
<path d="M12.3259 9.77166L2.759 21.2908C2.66271 21.3968 2.62419 21.5318 2.66752 21.633C2.71085 21.739 2.81196 21.8065 2.94678 21.8065H17.7281C17.8629 21.8065 17.9544 21.6908 17.9544 21.5655C17.9544 21.4354 17.8918 21.3583 17.7618 21.3293C17.2322 21.204 14.3289 20.5726 12.2441 19.9461C10.9537 19.5557 10.4482 18.4423 10.7852 16.9579C11.156 15.3143 12.7304 10.0319 12.7352 10.0175C12.7737 9.91144 12.7496 9.77166 12.6341 9.71865C12.5137 9.64635 12.4078 9.68009 12.3259 9.77166Z" fill="white"/>
<path d="M10.4192 7.49194C16.1391 7.49194 20.7998 12.1574 20.7998 17.9314C20.7998 23.6524 16.1439 28.3227 10.4192 28.3227C4.65588 28.3227 0 23.6524 0 17.9314C0 12.1574 4.65588 7.49194 10.4192 7.49194ZM10.4192 8.76435C5.36847 8.76435 1.2711 12.8659 1.2711 17.9314C1.2711 22.9825 5.36847 27.0841 10.4192 27.0841C15.4699 27.0841 19.5672 22.9825 19.5672 17.9314C19.5817 12.8852 15.5132 8.78363 10.4721 8.76435C10.4529 8.76435 10.4336 8.76435 10.4192 8.76435Z" fill="white"/>
</svg>
