<svg width="122" height="36" viewBox="0 0 122 36" fill="none" xmlns="http://www.w3.org/2000/svg">
<path d="M50.4012 23.9939L49.8118 13.5478C49.1818 14.8891 48.5924 16.1898 48.0031 17.4092C47.434 18.6286 46.8243 19.9089 46.174 21.2096H44.101C43.7758 20.5796 43.4507 19.9089 43.1255 19.2179C42.8003 18.5269 42.4751 17.8563 42.15 17.1856C41.8451 16.5149 41.5403 15.8646 41.2558 15.2346C40.9712 14.6046 40.707 14.0558 40.4835 13.5478L39.9144 23.9939H36.7643L37.4553 10.8041C37.4756 10.2351 37.6586 9.78797 38.004 9.52377C38.3495 9.23925 38.7966 9.09698 39.3657 9.09698H41.1541C41.1541 9.09698 41.9874 10.8245 42.2922 11.4748C42.5971 12.1251 42.9223 12.7958 43.2271 13.4665C43.5523 14.1371 43.8774 14.8078 44.2026 15.4785C44.5278 16.1491 44.853 16.7995 45.1985 17.4295C45.8082 16.2304 46.3975 15.0517 46.9666 13.8729C47.5356 12.7145 48.064 11.5764 48.5518 10.4993C48.7753 9.9912 49.0599 9.62539 49.3444 9.42216C49.6492 9.1986 50.0963 9.09698 50.706 9.09698H52.6367L53.4903 23.9939H50.4012V23.9939Z" fill="white"/>
<path d="M62.7577 19.0554C62.7171 19.035 62.6358 19.035 62.4935 19.0147C62.3716 18.9944 62.209 18.9944 62.0261 18.9741C61.8432 18.9537 61.64 18.9537 61.4164 18.9334C61.1929 18.9334 60.9693 18.9131 60.7254 18.9131C60.197 18.9131 59.7499 18.9537 59.4247 19.035C59.0996 19.1163 58.8354 19.2383 58.6525 19.4009C58.4695 19.5431 58.3476 19.726 58.2866 19.9496C58.2257 20.1528 58.185 20.3764 58.185 20.6203C58.185 20.8235 58.2053 21.0267 58.2663 21.2096C58.3273 21.3925 58.4492 21.5754 58.6321 21.7177C58.815 21.86 59.0589 22.0022 59.3841 22.0835C59.7093 22.1851 60.1361 22.2258 60.6441 22.2258C61.1929 22.2258 61.64 22.2055 62.0058 22.1445C62.3716 22.1038 62.6155 22.0632 62.7374 22.0226V19.0554H62.7577ZM65.7656 23.8313C65.7249 23.8516 65.5623 23.872 65.2981 23.9126C65.0136 23.9533 64.6681 23.9939 64.2007 24.0345C63.7536 24.0752 63.2049 24.1158 62.5748 24.1565C61.9448 24.1971 61.2742 24.2175 60.5425 24.2175C59.4654 24.2175 58.5915 24.1362 57.9005 23.9533C57.2095 23.7703 56.6608 23.5265 56.2543 23.2013C55.8479 22.8761 55.5633 22.5103 55.4211 22.0835C55.2788 21.6567 55.1975 21.1893 55.1975 20.6812C55.1975 20.0512 55.2991 19.5228 55.482 19.0554C55.6649 18.5879 55.9698 18.2221 56.3966 17.9173C56.8234 17.6124 57.3518 17.4092 58.0224 17.2466C58.6728 17.1043 59.4857 17.023 60.4206 17.023C61.0709 17.023 61.6196 17.0434 62.0464 17.084C62.4732 17.1247 62.7374 17.145 62.7984 17.1653V16.8198C62.7984 16.1491 62.5748 15.6207 62.1074 15.2549C61.64 14.8891 60.9287 14.7062 59.9531 14.7062H57.5753C56.5185 14.7062 56.4576 12.5316 56.4576 12.5316H59.7906C60.6645 12.5316 61.4774 12.6129 62.209 12.7552C62.9407 12.8974 63.5707 13.1616 64.0991 13.5275C64.6275 13.8933 65.0339 14.381 65.3185 15.011C65.603 15.6207 65.7453 16.393 65.7453 17.3279V23.8313H65.7656Z" fill="white"/>
<path d="M99.4819 19.0554C99.4413 19.035 99.36 19.035 99.2177 19.0147C99.0958 18.9944 98.9332 18.9944 98.7503 18.9741C98.5674 18.9537 98.3641 18.9537 98.1406 18.9334C97.917 18.9334 97.6935 18.9131 97.4496 18.9131C96.9212 18.9131 96.4741 18.9537 96.1489 19.035C95.8237 19.1163 95.5595 19.2383 95.3766 19.4009C95.1937 19.5431 95.0718 19.726 95.0108 19.9496C94.9498 20.1528 94.9092 20.3764 94.9092 20.6203C94.9092 20.8235 94.9295 21.0267 94.9905 21.2096C95.0514 21.3925 95.1734 21.5754 95.3563 21.7177C95.5392 21.86 95.7831 22.0022 96.1083 22.0835C96.4334 22.1851 96.8602 22.2258 97.3683 22.2258C97.917 22.2258 98.3641 22.2055 98.7299 22.1445C99.0958 22.1038 99.3396 22.0632 99.4616 22.0226V19.0554H99.4819ZM102.469 23.8313C102.429 23.8516 102.266 23.872 102.002 23.9126C101.717 23.9533 101.352 23.9939 100.905 24.0345C100.457 24.0752 99.9087 24.1158 99.2787 24.1565C98.6487 24.1971 97.978 24.2175 97.2464 24.2175C96.1692 24.2175 95.2953 24.1362 94.6043 23.9533C93.9133 23.7703 93.3646 23.5265 92.9582 23.2013C92.5517 22.8761 92.2672 22.5103 92.1249 22.0835C91.9826 21.6567 91.9014 21.1893 91.9014 20.6812C91.9014 20.0512 92.003 19.5228 92.1859 19.0554C92.3688 18.5879 92.6736 18.2221 93.1004 17.9173C93.5272 17.6124 94.0556 17.4092 94.7263 17.2466C95.3766 17.1043 96.1895 17.023 97.1244 17.023C97.7748 17.023 98.3235 17.0434 98.7503 17.084C99.1771 17.1247 99.4413 17.145 99.5022 17.1653V16.8198C99.5022 16.1491 99.2787 15.6207 98.8112 15.2549C98.3438 14.8891 97.6325 14.7062 96.657 14.7062H94.2792C93.2224 14.7062 93.1614 12.5316 93.1614 12.5316H96.4944C97.3683 12.5316 98.1812 12.6129 98.9129 12.7552C99.6445 12.8974 100.275 13.1616 100.803 13.5275C101.331 13.8933 101.738 14.381 102.022 15.011C102.307 15.6207 102.449 16.393 102.449 17.3279V23.8313H102.469Z" fill="white"/>
<path d="M73.631 14.7875C72.6961 14.7875 71.9442 15.072 71.3548 15.6614C70.7654 16.2507 70.4606 17.084 70.4606 18.1611C70.4606 18.7302 70.5419 19.2179 70.7045 19.6447C70.8671 20.0715 71.0906 20.417 71.3751 20.7015C71.6597 20.9861 71.9848 21.1893 72.3506 21.3315C72.7165 21.4738 73.1229 21.5551 73.5294 21.5551H78.0615C78.0615 21.5551 78.1834 23.9939 76.334 23.9939H73.2042C72.4116 23.9939 71.6597 23.8719 70.9483 23.6077C70.237 23.3639 69.6273 22.9777 69.0989 22.49C68.5705 21.9819 68.1437 21.3722 67.8389 20.6609C67.534 19.9292 67.3715 19.1163 67.3715 18.1611C67.3715 17.2466 67.534 16.4337 67.8389 15.7223C68.1437 15.011 68.5705 14.4013 69.0989 13.8933C69.6273 13.3852 70.2574 12.999 70.9687 12.7348C71.68 12.4706 72.4523 12.3284 73.2855 12.3284H78.1021C78.1021 12.3284 77.9192 14.8078 76.7608 14.8078H73.631V14.7875Z" fill="white"/>
<path d="M88.0201 14.1371C88.0201 13.69 87.8981 13.2429 87.6746 12.7754C87.451 12.3283 87.0649 12.0031 86.5771 11.8202C86.3942 11.7389 86.1504 11.6983 85.8861 11.6576C85.6219 11.617 85.3577 11.5967 85.0732 11.5967H83.0409V16.5962C83.1628 16.6165 83.3661 16.6572 83.6912 16.7181C84.0164 16.7588 84.3822 16.7994 84.809 16.7994C85.4594 16.7994 85.9878 16.7181 86.3942 16.5555C86.8007 16.393 87.1259 16.1897 87.3697 15.9255C87.6136 15.6816 87.7762 15.3768 87.8575 15.0719C87.9794 14.7468 88.0201 14.4216 88.0201 14.1371ZM85.8455 9.0766C86.1707 9.0766 86.5162 9.09693 86.8413 9.13757C87.1665 9.17822 87.4714 9.23919 87.7356 9.30016C88.3249 9.44242 88.8533 9.6863 89.2801 10.0115C89.7272 10.3366 90.0727 10.7228 90.3573 11.1699C90.6418 11.617 90.845 12.0844 90.9873 12.6128C91.1295 13.1412 91.1905 13.6696 91.1905 14.198C91.1905 14.8281 91.0889 15.4581 90.906 16.0678C90.7027 16.6775 90.3776 17.2262 89.9101 17.6936C89.4427 18.1611 88.833 18.5472 88.0607 18.8521C87.2885 19.1366 86.3333 19.2788 85.1748 19.2788C84.6464 19.2788 84.179 19.2585 83.7725 19.1976C83.3661 19.1569 83.1222 19.1163 83.0206 19.0756V23.9938H79.9315V10.7837C79.9315 9.64565 80.5208 9.09692 81.6793 9.09692H85.8455V9.0766Z" fill="white"/>
<path d="M104.4 15.8036C104.319 15.5801 104.238 15.3159 104.156 15.0517C104.075 14.7671 104.055 14.5233 104.055 14.2794C104.055 13.9542 104.156 13.6494 104.38 13.3648C104.604 13.0803 105.01 12.938 105.599 12.938H106.88C106.88 12.938 107.449 14.9907 107.693 15.8239C107.937 16.6572 108.16 17.4092 108.363 18.1001C108.567 18.7708 108.749 19.3602 108.892 19.8479C109.034 20.3357 109.156 20.6812 109.237 20.8844C109.379 20.4576 109.603 19.6854 109.928 18.5473C110.233 17.4092 110.619 16.0069 111.087 14.32C111.209 13.812 111.412 13.4461 111.676 13.2429C111.94 13.0397 112.326 12.938 112.834 12.938H114.135C114.135 12.938 114.724 15.011 114.948 15.8443C115.172 16.6572 115.375 17.4092 115.558 18.0798C115.741 18.7505 115.903 19.3399 116.025 19.8073C116.167 20.2951 116.269 20.6405 116.35 20.8438C116.411 20.7218 116.493 20.478 116.594 20.1325C116.696 19.787 116.818 19.4008 116.96 18.9537C117.102 18.5066 117.245 18.0392 117.387 17.5514C117.529 17.0637 117.671 16.5962 117.793 16.1491C117.915 15.702 118.037 15.3159 118.139 14.9704C118.24 14.6249 118.322 14.4013 118.362 14.2591C118.505 13.8323 118.708 13.5071 118.952 13.2835C119.196 13.06 119.602 12.938 120.151 12.938H122C122 12.938 121.492 14.5842 121.208 15.4175C120.923 16.2711 120.598 17.1856 120.212 18.2018C119.826 19.2179 119.439 20.2341 119.013 21.2706C118.586 22.307 118.2 23.2013 117.834 24.0142H114.785C114.724 23.8313 114.643 23.5671 114.521 23.2013C114.399 22.8354 114.277 22.429 114.135 21.9819C113.993 21.5348 113.851 21.0673 113.708 20.5796C113.566 20.0918 113.424 19.6244 113.282 19.1976C113.16 18.7505 113.038 18.3643 112.936 18.0392C112.834 17.714 112.773 17.4701 112.712 17.3075C112.672 17.4498 112.591 17.6937 112.509 18.0595C112.408 18.405 112.306 18.8115 112.164 19.2586C112.042 19.7057 111.9 20.1731 111.737 20.6812C111.595 21.1893 111.432 21.6567 111.31 22.0835C111.168 22.5306 111.046 22.9167 110.944 23.2622C110.843 23.6077 110.761 23.8516 110.7 23.9939H107.652C107.307 23.2013 106.941 22.3477 106.595 21.4738C106.229 20.5796 105.904 19.7463 105.599 18.974C105.295 18.2018 105.03 17.5108 104.827 16.9417C104.604 16.3523 104.461 15.9865 104.4 15.8036Z" fill="white"/>
<path d="M14.6527 33.2816C12.6813 33.2816 10.771 32.8954 8.96219 32.1232C7.2144 31.3915 5.64951 30.3347 4.30818 28.9934C2.96685 27.6521 1.91005 26.0872 1.17841 24.3394C0.40613 22.5306 0.019989 20.6202 0.019989 18.6489C0.019989 16.6775 0.40613 14.7671 1.17841 12.9584C1.91005 11.2106 2.96685 9.6457 4.30818 8.30437C5.64951 6.96304 7.2144 5.90624 8.96219 5.1746C9.4093 4.99169 9.89706 4.89008 10.3848 4.89008C11.8481 4.89008 13.1488 5.76397 13.7381 7.10531C14.5104 8.95472 13.6569 11.0887 11.8074 11.8609C10.9335 12.2267 10.1409 12.7551 9.47027 13.4461C8.79961 14.1168 8.27121 14.9094 7.88506 15.7833C7.49892 16.6978 7.31602 17.653 7.31602 18.6489C7.31602 19.6447 7.51925 20.5999 7.88506 21.5144C8.25088 22.3883 8.77929 23.181 9.47027 23.8516C10.1409 24.5223 10.9335 25.0507 11.8074 25.4368C12.722 25.823 13.6772 26.0059 14.673 26.0059C15.6688 26.0059 16.624 25.8026 17.5386 25.4368C18.4125 25.071 19.2051 24.5426 19.8757 23.8516C20.5464 23.181 21.0748 22.3883 21.461 21.5144C21.8471 20.5999 22.03 19.6447 22.03 18.6489C22.03 16.6572 23.6559 15.011 25.6679 15.011C27.6595 15.011 29.3057 16.6369 29.3057 18.6489C29.3057 20.6202 28.9196 22.5306 28.1473 24.3394C27.4157 26.0872 26.3588 27.6521 25.0175 28.9934C23.6762 30.3347 22.1113 31.3915 20.3635 32.1232C18.5344 32.8954 16.6037 33.2816 14.6527 33.2816Z" fill="white"/>
<path d="M10.3648 4.9104C9.87708 4.9104 9.40964 5.01202 8.94221 5.19492C7.19441 5.92656 5.62953 6.98337 4.2882 8.3247C2.94686 9.66603 1.89006 11.2309 1.15842 12.9787C0.386141 14.7875 0 16.6979 0 18.6692C0 20.6406 0.386141 22.5509 1.15842 24.3597C1.89006 26.1075 2.94686 27.6724 4.2882 29.0137C5.62953 30.355 7.19441 31.4119 8.94221 32.1435C10.751 32.9158 12.6614 33.3019 14.6327 33.3019C16.6041 33.3019 18.5144 32.9158 20.3232 32.1435C22.071 31.4119 23.6359 30.355 24.9772 29.0137C26.3185 27.6724 27.3753 26.1075 28.107 24.3597C28.8793 22.5509 29.2654 20.6406 29.2654 18.6692C29.2654 16.6775 27.6395 15.0314 25.6276 15.0314C23.6359 15.0314 21.9897 16.6572 21.9897 18.6692C21.9897 19.665 21.7865 20.6202 21.4207 21.5348C21.0548 22.4087 20.5264 23.2013 19.8354 23.8719C19.1648 24.5426 18.3722 25.071 17.4983 25.4572C16.5837 25.8433 15.6285 26.0262 14.6327 26.0262C13.6369 26.0262 12.6817 25.823 11.7671 25.4572C10.8932 25.0913 10.1006 24.5629 9.42996 23.8719C8.7593 23.2013 8.2309 22.4087 7.84476 21.5348C7.45861 20.6406 7.27571 19.665 7.27571 18.6692C7.27571 17.6734 7.47894 16.7182 7.84476 15.8036C8.21057 14.9297 8.73898 14.1371 9.42996 13.4665C10.1006 12.7958 10.8932 12.2674 11.7671 11.8813C13.1491 11.2919 13.9824 9.95056 13.9824 8.52793C13.9824 8.0605 13.8807 7.57274 13.6978 7.12563C13.1491 5.7843 11.8281 4.9104 10.3648 4.9104Z" fill="white"/>
<path d="M12.9458 3.40646C12.9458 3.18291 12.7628 3 12.5393 3L11.6247 3.18291C11.3402 3.2642 11.1573 3.50808 11.1573 3.83325C11.1573 4.19907 11.4622 4.50391 11.828 4.50391C12.0312 4.50391 12.2141 4.4023 12.3361 4.26004L12.8035 3.73164C12.8848 3.63002 12.9458 3.5284 12.9458 3.40646Z" fill="white"/>
<path d="M16.3807 9.03598C16.3807 8.81243 16.1978 8.62952 15.9742 8.62952L15.0597 8.81242C14.7751 8.89372 14.5922 9.13759 14.5922 9.46276C14.5922 9.82858 14.8971 10.1334 15.2629 10.1334C15.4661 10.1334 15.649 10.0318 15.771 9.88955L16.2384 9.36115C16.34 9.27985 16.3807 9.15792 16.3807 9.03598Z" fill="white"/>
<path d="M15.527 4.23971C15.527 3.95518 15.3034 3.73163 15.0189 3.73163L13.9011 3.93486C13.5556 4.03648 13.3321 4.34132 13.3321 4.70714C13.3321 5.15425 13.6979 5.52007 14.145 5.52007C14.3889 5.52007 14.6124 5.39813 14.7547 5.23555L15.3441 4.5852C15.466 4.52423 15.527 4.38197 15.527 4.23971Z" fill="white"/>
<path d="M16.7666 6.4753C16.7666 6.19078 16.5431 5.96722 16.2585 5.96722L15.1408 6.19078C14.7953 6.2924 14.5717 6.59724 14.5717 6.98338C14.5717 7.43049 14.9375 7.79631 15.3846 7.79631C15.6285 7.79631 15.8521 7.67437 16.0147 7.51179L16.5837 6.86144C16.7057 6.7395 16.7666 6.61757 16.7666 6.4753Z" fill="white"/>
</svg>
