<svg width="178" height="36" viewBox="0 0 178 36" fill="none" xmlns="http://www.w3.org/2000/svg">
<g clip-path="url(#clip0_771_9800)">
<path d="M3.42821 16.1097C4.78387 16.4499 5.79196 17.1148 7.65316 18.7137C9.51511 20.3119 10.5729 20.5886 11.3372 20.8744C11.3379 20.8721 10.5435 22.64 8.95239 26.178C8.82337 26.4141 8.66267 26.6045 8.44358 26.6479L8.34603 26.6572H8.12862C7.90593 26.6526 7.64714 26.5372 7.4869 26.165C4.78236 19.4643 3.42897 16.1128 3.42821 16.1097V16.1097ZM25.3496 16.0974C25.3481 16.1004 23.9955 19.4519 21.2909 26.1526C21.1485 26.4835 20.9282 26.6114 20.7246 26.639L20.6492 26.6448H20.4318C20.161 26.6456 19.9722 26.4354 19.8247 26.1648C18.3252 22.8297 17.5333 21.0676 17.4483 20.879L17.4406 20.8621C18.205 20.5754 19.262 20.2995 21.1239 18.7006C22.9859 17.1024 23.9932 16.4367 25.3496 16.0974V16.0974ZM14.5248 7.0078C14.8024 7.0078 15.0725 7.16754 15.1785 7.48702C17.9478 13.6328 19.332 16.7046 19.3313 16.7038C18.3074 17.5583 17.4497 18.0551 16.3281 18.338C16.3273 18.3364 15.6931 16.9935 14.424 14.307C14.4007 14.2588 14.3781 14.2343 14.3548 14.2343C14.3314 14.2343 14.3081 14.2588 14.2856 14.307C13.0405 17.0011 12.4198 18.3448 12.4221 18.338C10.9739 17.9649 10.19 17.2969 9.43469 16.7054C9.43319 16.7077 10.8031 13.6351 13.5423 7.48702C13.6484 7.16754 13.9019 7.0078 14.1795 7.0078H14.5248ZM3.61012 7.00611C3.83205 7.00611 4.05398 7.20101 4.10965 7.39591C5.96484 12.2447 6.89243 14.6691 6.89243 14.6683C4.96653 13.4317 3.29491 13.2398 2.24394 13.1649C2.24394 13.1657 1.50592 11.3352 0.0283973 7.67412C-0.0736847 7.31431 0.107563 7.04958 0.441964 7.01098L0.52868 7.00611H3.61012ZM28.2531 7C28.6421 7 28.864 7.27821 28.7527 7.66801C27.2759 11.3291 26.5371 13.1596 26.5371 13.1588C25.4862 13.2337 23.8153 13.4256 21.8894 14.6614C21.8886 14.663 22.8162 12.2386 24.6714 7.3898C24.7201 7.21926 24.8961 7.04872 25.0886 7.00876L25.1717 7H28.2531Z" fill="white"/>
</g>
<path d="M50.9852 20.8124L54.8337 10.3044H57.4359L51.182 26.633H50.8758L46.5025 16.0583L42.151 26.6108H41.8448L35.5909 10.3044H38.1931L42.0416 20.8124L46.4587 10.2155H46.5899L50.9852 20.8124Z" fill="white"/>
<path d="M63.7684 10.2822L71.5092 26.633H68.6884L67.3108 23.4339H59.9417L58.5641 26.633H55.8307L63.5279 10.2822H63.7684ZM62.675 17.2357L60.9257 21.1901H66.3487L64.6212 17.2579L63.6809 15.0141H63.6372L62.675 17.2357Z" fill="white"/>
<path d="M79.6939 26.8551C78.1049 26.8551 76.6836 26.4849 75.4299 25.7443C74.1762 25.0038 73.1922 23.9893 72.4779 22.7008C71.7781 21.3974 71.4283 19.9386 71.4283 18.3243C71.4283 16.7544 71.7854 15.3399 72.4997 14.0811C73.2141 12.8222 74.2054 11.8373 75.4736 11.1264C76.7419 10.4155 78.1705 10.06 79.7595 10.06C80.6196 10.06 81.3923 10.1415 82.0774 10.3044C82.7772 10.4525 83.3457 10.6302 83.783 10.8376C84.2204 11.0301 84.5192 11.2004 84.6796 11.3485L83.7174 13.4368C82.8136 12.6963 81.4797 12.326 79.7158 12.326C78.5496 12.326 77.5364 12.5852 76.6763 13.1036C75.8162 13.6219 75.1602 14.3254 74.7083 15.2141C74.2564 16.1027 74.0304 17.095 74.0304 18.191C74.0304 19.4351 74.271 20.5458 74.752 21.5233C75.2477 22.5008 75.9256 23.2636 76.7856 23.8116C77.6603 24.3447 78.6443 24.6113 79.7377 24.6113C80.4228 24.6113 81.0788 24.5299 81.7057 24.367C82.3325 24.1892 82.8646 23.9152 83.302 23.545V20.3903H80.0001V18.1021H85.7292V24.5003C85.2044 25.1667 84.4099 25.7295 83.3457 26.1887C82.2961 26.633 81.0788 26.8551 79.6939 26.8551Z" fill="white"/>
<path d="M88.4437 10.3044H95.4849V12.4815H90.871V16.9913H94.5883V19.2129H90.871V24.4336H96.2065V26.633H88.4437V10.3044Z" fill="white"/>
<path d="M102.368 26.8551C101.494 26.8551 100.626 26.6996 99.7663 26.3886C98.9062 26.0776 98.2867 25.7295 97.9076 25.3445L99.0666 23.234C99.3727 23.5154 99.8465 23.8116 100.488 24.1226C101.144 24.4188 101.771 24.5669 102.368 24.5669C103.141 24.5669 103.768 24.3818 104.249 24.0115C104.745 23.6412 104.993 23.1303 104.993 22.4786C104.993 21.9751 104.861 21.5381 104.599 21.1679C104.336 20.7976 104.016 20.494 103.637 20.257C103.258 20.0053 102.718 19.7016 102.019 19.3462C101.188 18.9315 100.619 18.6205 100.313 18.4131C98.8989 17.4504 98.1919 16.1175 98.1919 14.4143C98.1919 13.0073 98.6511 11.9335 99.5695 11.193C100.488 10.4377 101.647 10.06 103.046 10.06C104.548 10.06 105.823 10.4969 106.873 11.3707L105.714 13.3924C105.437 13.0962 105.044 12.8444 104.533 12.637C104.038 12.4149 103.506 12.3038 102.937 12.3038C102.208 12.3038 101.632 12.4741 101.21 12.8148C100.801 13.1406 100.597 13.6293 100.597 14.281C100.597 14.7401 100.728 15.1548 100.991 15.5251C101.253 15.8805 101.581 16.1916 101.975 16.4581C102.383 16.7247 102.93 17.0506 103.615 17.4356C104.271 17.8059 104.774 18.1021 105.124 18.3243C105.474 18.5316 105.802 18.7834 106.108 19.0796C106.53 19.4647 106.873 19.9238 107.135 20.457C107.398 20.9902 107.529 21.5752 107.529 22.212C107.529 23.2043 107.303 24.0485 106.851 24.7446C106.414 25.4407 105.802 25.9665 105.014 26.3219C104.242 26.6774 103.36 26.8551 102.368 26.8551Z" fill="white"/>
<path d="M112.561 12.4815H108.45V10.3044H119.143V12.4815H114.988V26.633H112.561V12.4815Z" fill="white"/>
<path d="M129.526 26.633L126.29 20.457C125.619 20.4866 125.021 20.5014 124.497 20.5014H123.884V26.633H121.501V10.3044H125.153C127.004 10.3044 128.527 10.6969 129.723 11.4818C130.918 12.252 131.516 13.5108 131.516 15.2585C131.516 16.3545 131.261 17.3023 130.75 18.1021C130.255 18.8871 129.511 19.4943 128.52 19.9238L132.347 26.633H129.526ZM125.437 18.4798C126.865 18.4798 127.842 18.1688 128.367 17.5467C128.906 16.9099 129.176 16.1545 129.176 15.2807C129.176 13.3405 127.9 12.3704 125.349 12.3704H123.884V18.4798H125.437Z" fill="white"/>
<path d="M134.825 10.3044H141.866V12.4815H137.253V16.9913H140.97V19.2129H137.253V24.4336H142.588V26.633H134.825V10.3044Z" fill="white"/>
<path d="M150.937 10.2822L158.678 26.633H155.857L154.479 23.4339H147.11L145.732 26.633H142.999L150.696 10.2822H150.937ZM149.843 17.2357L148.094 21.1901H153.517L151.79 17.2579L150.849 15.0141H150.806L149.843 17.2357Z" fill="white"/>
<path d="M164.157 19.013L163.151 16.7025L162.692 19.013L161.205 26.633H158.778L162.101 10.3044H162.364L166.781 19.124L168.093 22.0787L169.405 19.124L173.734 10.3044H173.975L177.43 26.633H175.025L173.406 19.013L172.925 16.7025L172.051 19.013L168.158 26.633H168.027L164.157 19.013Z" fill="white"/>
<defs>
<clipPath id="clip0_771_9800">
<rect width="29.3463" height="20.4976" fill="white" transform="translate(0 7)"/>
</clipPath>
</defs>
</svg>
