<?xml version="1.0" encoding="utf-8"?>
<svg width="52" height="36" viewBox="0 0 52 36" fill="none" xmlns="http://www.w3.org/2000/svg">
<g clip-path="url(#clip0)">
<path d="M10.76 8.57001L22.48 1.21002C22.9564 0.91062 23.5074 0.751197 24.07 0.75H48.07C48.8657 0.75 49.6287 1.06611 50.1913 1.62872C50.754 2.19133 51.07 2.95435 51.07 3.75V5.11005" stroke="black" stroke-width="1.5" stroke-linecap="round" stroke-linejoin="round"/>
<path d="M22.8101 13.61C22.5059 13.8989 22.2656 14.2483 22.1049 14.6358C21.9442 15.0233 21.8665 15.4401 21.8769 15.8594C21.8873 16.2788 21.9854 16.6913 22.1651 17.0704C22.3448 17.4494 22.602 17.7865 22.92 18.06L24.02 19C24.5627 19.4621 25.2522 19.7159 25.965 19.7159C26.6778 19.7159 27.3673 19.4621 27.91 19L40.3101 8.55005H43.85C44.6457 8.55005 45.4088 8.8661 45.9714 9.42871C46.534 9.99132 46.85 10.7544 46.85 11.55V32.55C46.85 33.3457 46.534 34.1087 45.9714 34.6713C45.4088 35.2339 44.6457 35.55 43.85 35.55H3.53003C2.73438 35.55 1.9713 35.2339 1.40869 34.6713C0.846082 34.1087 0.530029 33.3457 0.530029 32.55V11.55C0.530029 10.7544 0.846082 9.99132 1.40869 9.42871C1.9713 8.8661 2.73438 8.55005 3.53003 8.55005H28.1" fill="#22E297"/>
<path d="M31.5001 5.31995L22.8101 13.61C22.5059 13.8989 22.2657 14.2483 22.1049 14.6357C21.9442 15.0232 21.8665 15.44 21.8769 15.8594C21.8873 16.2787 21.9854 16.6913 22.1651 17.0703C22.3448 17.4494 22.602 17.7864 22.92 18.0599L24.02 18.9999C24.5627 19.4621 25.2522 19.7159 25.965 19.7159C26.6778 19.7159 27.3673 19.4621 27.91 18.9999L40.3101 8.54999" stroke="black" stroke-width="1.5" stroke-linecap="round" stroke-linejoin="round"/>
<path d="M0.75 25.75H46.9" stroke="black" stroke-width="1.5" stroke-linecap="round" stroke-linejoin="round"/>
<path d="M0.75 30.4301H46.9" stroke="black" stroke-width="1.5" stroke-linecap="round" stroke-linejoin="round"/>
</g>
<defs>
<clipPath id="clip0">
<rect width="51.85" height="35.52" fill="white"/>
</clipPath>
</defs>
</svg>
