<?xml version="1.0" encoding="utf-8"?>
<svg width="44" height="39" viewBox="0 0 44 39" fill="none" xmlns="http://www.w3.org/2000/svg">
<g clip-path="url(#clip0)">
<path d="M9.4901 1.61999C7.5501 4.83999 2.15009 14.01 0.230086 17.3C0.159676 17.4199 0.122171 17.5563 0.121352 17.6953C0.120533 17.8344 0.156424 17.9712 0.225417 18.0919C0.294409 18.2127 0.394047 18.3131 0.514265 18.383C0.634484 18.4528 0.77102 18.4898 0.910078 18.49H19.2401C19.3788 18.4885 19.5148 18.451 19.6346 18.3811C19.7545 18.3112 19.8541 18.2114 19.9237 18.0913C19.9933 17.9713 20.0305 17.8352 20.0316 17.6965C20.0327 17.5578 19.9977 17.4211 19.9301 17.3L10.8501 1.63C10.7811 1.51132 10.6824 1.41267 10.5636 1.34377C10.4449 1.27487 10.3102 1.23809 10.173 1.23708C10.0357 1.23607 9.90049 1.27086 9.78074 1.338C9.661 1.40515 9.56083 1.50233 9.4901 1.61999Z" fill="#22E297"/>
<path d="M30.8199 0H13.0099C12.8709 0.000219726 12.7343 0.0371328 12.6141 0.107025C12.4939 0.176917 12.3943 0.277304 12.3253 0.398041C12.2563 0.518778 12.2204 0.655591 12.2212 0.794647C12.222 0.933704 12.2595 1.07009 12.3299 1.19L21.2299 16.56C21.2992 16.6805 21.3989 16.7806 21.5192 16.8502C21.6395 16.9198 21.776 16.9565 21.9149 16.9565C22.0539 16.9565 22.1904 16.9198 22.3107 16.8502C22.4309 16.7806 22.5307 16.6805 22.5999 16.56L31.4999 1.19C31.5703 1.07009 31.6079 0.933704 31.6087 0.794647C31.6095 0.655591 31.5736 0.518778 31.5046 0.398041C31.4356 0.277304 31.336 0.176917 31.2157 0.107025C31.0955 0.0371328 30.959 0.000219726 30.8199 0Z" fill="#22E297"/>
<path d="M0.110081 21.18C2.04008 24.48 7.51007 33.72 9.47007 36.97C9.53994 37.0882 9.6394 37.1861 9.75864 37.2541C9.87788 37.3221 10.0128 37.3579 10.1501 37.3579C10.2874 37.3579 10.4223 37.3221 10.5415 37.2541C10.6607 37.1861 10.7602 37.0882 10.8301 36.97C12.7001 33.7 18.0301 24.47 19.9301 21.18C19.9984 21.0596 20.0339 20.9234 20.0331 20.7849C20.0322 20.6465 19.9949 20.5107 19.925 20.3912C19.8551 20.2717 19.7551 20.1727 19.6349 20.104C19.5146 20.0353 19.3785 19.9995 19.2401 20H0.790074C0.652484 20.0012 0.517604 20.0384 0.398777 20.1077C0.279951 20.1771 0.181315 20.2763 0.112614 20.3955C0.043913 20.5147 0.00752709 20.6498 0.00708417 20.7874C0.00664125 20.925 0.042149 21.0603 0.110081 21.18Z" fill="#22E297"/>
<path d="M34.3599 36.97C36.3099 33.71 41.7599 24.48 43.6999 21.18C43.7703 21.0601 43.8078 20.9237 43.8086 20.7846C43.8095 20.6456 43.7736 20.5088 43.7046 20.388C43.6356 20.2673 43.5359 20.1669 43.4157 20.097C43.2955 20.0271 43.159 19.9902 43.0199 19.99H24.6399C24.5015 19.9895 24.3653 20.0253 24.2451 20.094C24.1249 20.1627 24.0249 20.2617 23.955 20.3812C23.8851 20.5007 23.8478 20.6365 23.8469 20.7749C23.8461 20.9134 23.8816 21.0496 23.9499 21.17C25.8499 24.46 31.1699 33.69 33.0399 36.96C33.1126 37.0678 33.2104 37.1563 33.3249 37.2178C33.4395 37.2793 33.5673 37.3119 33.6973 37.3129C33.8273 37.3139 33.9555 37.2832 34.071 37.2234C34.1865 37.1637 34.2856 37.0767 34.3599 36.97Z" fill="#22E297"/>
<path d="M43.6399 17.3C41.6999 14.02 36.2799 4.88999 34.3299 1.67999C34.26 1.56183 34.1606 1.46392 34.0413 1.3959C33.9221 1.32789 33.7872 1.29211 33.6499 1.29211C33.5126 1.29211 33.3777 1.32789 33.2585 1.3959C33.1392 1.46392 33.0398 1.56183 32.9699 1.67999L23.9699 17.29C23.9016 17.4104 23.8661 17.5466 23.867 17.6851C23.8678 17.8235 23.9051 17.9593 23.975 18.0788C24.0448 18.1983 24.1449 18.2973 24.2651 18.366C24.3853 18.4347 24.5215 18.4705 24.6599 18.47H42.9799C43.1143 18.4645 43.2451 18.4248 43.3599 18.3546C43.4747 18.2843 43.5696 18.186 43.6357 18.0688C43.7018 17.9516 43.7369 17.8195 43.7377 17.6849C43.7384 17.5504 43.7047 17.4179 43.6399 17.3Z" fill="#22E297"/>
<path d="M21.23 21.9101C19.34 25.1701 14.06 34.26 12.16 37.5201C12.0896 37.64 12.0521 37.7763 12.0513 37.9154C12.0505 38.0545 12.0864 38.1913 12.1554 38.312C12.2244 38.4327 12.324 38.5331 12.4442 38.603C12.5644 38.6729 12.701 38.7098 12.84 38.7101C16.63 38.7101 27.2 38.7101 30.98 38.7101C31.1199 38.7116 31.2577 38.676 31.3793 38.6068C31.501 38.5376 31.602 38.4374 31.6722 38.3164C31.7424 38.1953 31.7792 38.0578 31.7788 37.9179C31.7784 37.778 31.7409 37.6407 31.67 37.5201C29.77 34.26 24.49 25.1701 22.6 21.9101C22.5288 21.7921 22.4283 21.6944 22.3083 21.6267C22.1883 21.5589 22.0528 21.5233 21.915 21.5233C21.7772 21.5233 21.6417 21.5589 21.5217 21.6267C21.4017 21.6944 21.3012 21.7921 21.23 21.9101Z" fill="#22E297"/>
<path d="M22.1599 30.0701C23.552 30.0873 24.9337 29.83 26.2264 29.3132C27.519 28.7963 28.6972 28.0298 29.6936 27.0576C30.69 26.0853 31.4851 24.9263 32.0335 23.6467C32.5819 22.3672 32.873 20.9921 32.8899 19.6001C32.8743 18.2072 32.5842 16.831 32.0363 15.5503C31.4885 14.2696 30.6936 13.1094 29.6971 12.1361C28.7005 11.1628 27.5219 10.3955 26.2287 9.87794C24.9354 9.36043 23.5528 9.1029 22.1599 9.12007C20.7666 9.10289 19.3835 9.36034 18.0896 9.87773C16.7958 10.3951 15.6165 11.1623 14.6192 12.1355C13.6219 13.1087 12.826 14.2688 12.2771 15.5496C11.7282 16.8304 11.4369 18.2067 11.4199 19.6001C11.4568 22.4123 12.6088 25.0949 14.6227 27.0582C16.6366 29.0215 19.3476 30.1048 22.1599 30.0701V30.0701Z" stroke="black" stroke-width="1.5" stroke-linecap="round" stroke-linejoin="round"/>
</g>
<defs>
<clipPath id="clip0">
<rect width="43.81" height="38.72" fill="white"/>
</clipPath>
</defs>
</svg>
