<?xml version="1.0" encoding="utf-8"?>
<svg width="50" height="42" viewBox="0 0 50 42" fill="none" xmlns="http://www.w3.org/2000/svg">
<path d="M18.8401 6.54999L24.6401 0.75L30.4501 6.54999" stroke="black" stroke-width="1.5" stroke-linecap="round" stroke-linejoin="round"/>
<path d="M47.54 11.6001H1.73999C1.47477 11.6001 1.22043 11.7054 1.0329 11.893C0.845362 12.0805 0.73999 12.3349 0.73999 12.6001V35.1201C0.73999 35.3853 0.845362 35.6396 1.0329 35.8272C1.22043 36.0147 1.47477 36.1201 1.73999 36.1201H47.54C47.8053 36.1201 48.0596 36.0147 48.2471 35.8272C48.4347 35.6396 48.54 35.3853 48.54 35.1201V12.5501C48.5272 12.2936 48.4162 12.0519 48.23 11.8751C48.0439 11.6982 47.7968 11.5998 47.54 11.6001Z" fill="#22E297"/>
<path d="M5 41H45" stroke="black" stroke-width="1.5" stroke-linecap="round" stroke-linejoin="round"/>
<path d="M28.64 19.3701C29.2726 19.9238 29.7804 20.6055 30.1299 21.3701C30.4785 22.1434 30.6592 22.9819 30.66 23.8301C30.6559 25.4174 30.0231 26.9384 28.9 28.0601C27.7766 29.1795 26.2558 29.8087 24.67 29.8101C23.0841 29.8087 21.5633 29.1795 20.4399 28.0601C19.3205 26.9368 18.6913 25.416 18.6899 23.8301C18.6893 22.9785 18.87 22.1365 19.22 21.3601C19.5718 20.5915 20.0872 19.909 20.73 19.3601" stroke="black" stroke-width="1.5" stroke-linecap="round" stroke-linejoin="round"/>
<path d="M0.75 17.5801C2.3373 17.576 3.85835 16.9432 4.98004 15.8201C6.09703 14.6992 6.72601 13.1825 6.73004 11.6001" stroke="black" stroke-width="1.5" stroke-linecap="round" stroke-linejoin="round"/>
<path d="M0.75 30.1699C1.5361 30.1718 2.31421 30.3281 3.04004 30.6299C3.76564 30.9274 4.42504 31.3659 4.98004 31.9199C5.53625 32.4752 5.97794 33.1344 6.28003 33.8599C6.57847 34.5864 6.73137 35.3645 6.73004 36.1499" stroke="black" stroke-width="1.5" stroke-linecap="round" stroke-linejoin="round"/>
<path d="M42.55 36.1199C42.5519 35.3338 42.7082 34.5558 43.0101 33.8299C43.3248 33.1152 43.7728 32.467 44.3301 31.9199C44.8886 31.3702 45.5471 30.9324 46.2701 30.6299C46.9959 30.3281 47.774 30.1718 48.5601 30.1699" stroke="black" stroke-width="1.5" stroke-linecap="round" stroke-linejoin="round"/>
<path d="M48.5301 17.5801C46.9532 17.5681 45.4444 16.9359 44.3301 15.8201C43.2131 14.6992 42.5841 13.1825 42.5801 11.6001" stroke="black" stroke-width="1.5" stroke-linecap="round" stroke-linejoin="round"/>
<path d="M24.6401 23.88V0.75" stroke="black" stroke-width="1.5" stroke-linecap="round" stroke-linejoin="round"/>
</svg>
